<mxfile host="app.diagrams.net" modified="2023-10-17T10:49:45.017Z" agent="Mozilla/5.0 (Windows NT 10.0; Win64; x64; rv:109.0) Gecko/20100101 Firefox/118.0" etag="jpFpbxwo_EdueeyjycPx" version="22.0.4" type="device">
  <diagram name="Page-1" id="GgY08rLqiByfh1tncBYm">
    <mxGraphModel dx="2021" dy="508" grid="1" gridSize="10" guides="1" tooltips="1" connect="1" arrows="1" fold="1" page="1" pageScale="1" pageWidth="850" pageHeight="1100" math="0" shadow="0">
      <root>
        <mxCell id="0" />
        <mxCell id="1" parent="0" />
        <mxCell id="w3264zR7rGeF_oMtsxfC-253" style="edgeStyle=orthogonalEdgeStyle;rounded=0;orthogonalLoop=1;jettySize=auto;html=1;exitX=0;exitY=0.5;exitDx=0;exitDy=0;" parent="1" source="w3264zR7rGeF_oMtsxfC-1" target="w3264zR7rGeF_oMtsxfC-4" edge="1">
          <mxGeometry relative="1" as="geometry" />
        </mxCell>
        <mxCell id="w3264zR7rGeF_oMtsxfC-278" style="edgeStyle=orthogonalEdgeStyle;rounded=0;orthogonalLoop=1;jettySize=auto;html=1;exitX=1;exitY=0.5;exitDx=0;exitDy=0;entryX=0;entryY=0.5;entryDx=0;entryDy=0;" parent="1" source="w3264zR7rGeF_oMtsxfC-1" target="w3264zR7rGeF_oMtsxfC-5" edge="1">
          <mxGeometry relative="1" as="geometry" />
        </mxCell>
        <mxCell id="w3264zR7rGeF_oMtsxfC-1" value="&lt;p&gt;On a chilly and eerie Halloween night, the streets, which are usually bustling with children trick-or-treating, remain hauntingly quiet. An unsettling tension hangs in the air, for a menacing killer roams free. Authorities have imposed a strict curfew, and the once-joyful holiday has turned into a night of dread.&lt;/p&gt;&lt;p&gt;You find yourself alone at home, the silence broken only by the distant hoot of an owl. The faint glow of your phone screen pierces the darkness, casting eerie shadows on the walls. It&#39;s then that your phone rings, the sudden intrusion jolting your nerves.&lt;/p&gt;" style="rounded=0;whiteSpace=wrap;html=1;" parent="1" vertex="1">
          <mxGeometry x="2526" y="130" width="340" height="160" as="geometry" />
        </mxCell>
        <mxCell id="w3264zR7rGeF_oMtsxfC-350" style="edgeStyle=orthogonalEdgeStyle;rounded=0;orthogonalLoop=1;jettySize=auto;html=1;exitX=0.75;exitY=1;exitDx=0;exitDy=0;entryX=0.5;entryY=0;entryDx=0;entryDy=0;" parent="1" source="w3264zR7rGeF_oMtsxfC-4" target="w3264zR7rGeF_oMtsxfC-7" edge="1">
          <mxGeometry relative="1" as="geometry" />
        </mxCell>
        <mxCell id="w3264zR7rGeF_oMtsxfC-4" value="&lt;div&gt;Path pick up the phone&lt;/div&gt;&lt;div&gt;&lt;br&gt;&lt;/div&gt;&lt;div&gt;//&#39;&#39;You pick up the Phone&#39;&#39;//&lt;/div&gt;&lt;br&gt;You pick up the call, and to your horror, all that emanates from the &lt;br&gt;other end is an ear-piercing scream, drowning you in a chilling wave of &lt;br&gt;terror." style="rounded=0;whiteSpace=wrap;html=1;" parent="1" vertex="1">
          <mxGeometry x="630" y="250" width="330" height="140" as="geometry" />
        </mxCell>
        <mxCell id="w3264zR7rGeF_oMtsxfC-279" style="edgeStyle=orthogonalEdgeStyle;rounded=0;orthogonalLoop=1;jettySize=auto;html=1;exitX=0;exitY=1;exitDx=0;exitDy=0;" parent="1" source="w3264zR7rGeF_oMtsxfC-5" target="w3264zR7rGeF_oMtsxfC-12" edge="1">
          <mxGeometry relative="1" as="geometry" />
        </mxCell>
        <mxCell id="w3264zR7rGeF_oMtsxfC-280" style="edgeStyle=orthogonalEdgeStyle;rounded=0;orthogonalLoop=1;jettySize=auto;html=1;exitX=1;exitY=1;exitDx=0;exitDy=0;entryX=0.5;entryY=0;entryDx=0;entryDy=0;" parent="1" source="w3264zR7rGeF_oMtsxfC-5" target="w3264zR7rGeF_oMtsxfC-18" edge="1">
          <mxGeometry relative="1" as="geometry" />
        </mxCell>
        <mxCell id="w3264zR7rGeF_oMtsxfC-5" value="&lt;div&gt;Path you don&#39;t pick up the phone&lt;br&gt;&lt;/div&gt;&lt;div&gt;//&#39;&#39;You don&#39;t pick up the phone&#39;&#39;//&lt;/div&gt;&lt;div&gt;&lt;br&gt;&lt;/div&gt;Scaredy pants, perhaps this game isn&#39;t for you. But don&#39;t worry, it&#39;s &lt;br/&gt;not the killerâ€”that would be too cliche. You &lt;br/&gt;check to see who was calling, to your immense relief, it was just your best friend." style="rounded=0;whiteSpace=wrap;html=1;" parent="1" vertex="1">
          <mxGeometry x="3660" y="149" width="410" height="120" as="geometry" />
        </mxCell>
        <mxCell id="w3264zR7rGeF_oMtsxfC-41" style="edgeStyle=orthogonalEdgeStyle;rounded=0;orthogonalLoop=1;jettySize=auto;html=1;exitX=1;exitY=0.75;exitDx=0;exitDy=0;entryX=0.25;entryY=0;entryDx=0;entryDy=0;" parent="1" source="w3264zR7rGeF_oMtsxfC-7" target="w3264zR7rGeF_oMtsxfC-33" edge="1">
          <mxGeometry relative="1" as="geometry">
            <mxPoint x="1860" y="504" as="sourcePoint" />
          </mxGeometry>
        </mxCell>
        <mxCell id="w3264zR7rGeF_oMtsxfC-243" style="edgeStyle=orthogonalEdgeStyle;rounded=0;orthogonalLoop=1;jettySize=auto;html=1;exitX=0;exitY=0.5;exitDx=0;exitDy=0;" parent="1" source="w3264zR7rGeF_oMtsxfC-7" edge="1">
          <mxGeometry relative="1" as="geometry">
            <mxPoint x="1240" y="620" as="targetPoint" />
          </mxGeometry>
        </mxCell>
        <mxCell id="w3264zR7rGeF_oMtsxfC-7" value="&lt;div&gt;&lt;div&gt;Path pick up the phone&lt;/div&gt;&lt;/div&gt;&lt;div&gt;Choice B&lt;/div&gt;&lt;div&gt;&lt;br&gt;&lt;/div&gt;&lt;div&gt;//&#39;&#39;You gather your courage and decide to go to your best friend&#39;s house to rescue them&#39;&#39;//&lt;/div&gt;&lt;div&gt;&lt;br&gt;&lt;/div&gt;You arrive at their home, and it&#39;s eerily quiet and dark. The front door is wide open." style="rounded=0;whiteSpace=wrap;html=1;" parent="1" vertex="1">
          <mxGeometry x="1546" y="430" width="180" height="140" as="geometry" />
        </mxCell>
        <mxCell id="w3264zR7rGeF_oMtsxfC-180" style="edgeStyle=orthogonalEdgeStyle;rounded=0;orthogonalLoop=1;jettySize=auto;html=1;exitX=0;exitY=1;exitDx=0;exitDy=0;entryX=0.25;entryY=0;entryDx=0;entryDy=0;" parent="1" source="w3264zR7rGeF_oMtsxfC-10" target="w3264zR7rGeF_oMtsxfC-30" edge="1">
          <mxGeometry relative="1" as="geometry" />
        </mxCell>
        <mxCell id="w3264zR7rGeF_oMtsxfC-10" value="&lt;div&gt;&lt;div&gt;Path pick up the phone&lt;/div&gt;&lt;/div&gt;&lt;div&gt;Choice A&lt;/div&gt;&lt;div&gt;//&#39;&#39;You decide to stay home, driven by the selfish desire to ensure your own survival on this ominous night. &#39;&#39;//&lt;/div&gt;&lt;div&gt;&lt;br&gt;&lt;/div&gt;The lights in your room suddenly go out, plunging you into pitch-black &lt;br&gt;darkness. The only source of illumination is the faint glow from your &lt;br&gt;phone screen." style="rounded=0;whiteSpace=wrap;html=1;" parent="1" vertex="1">
          <mxGeometry x="-400" y="340" width="280" height="210" as="geometry" />
        </mxCell>
        <mxCell id="w3264zR7rGeF_oMtsxfC-16" style="edgeStyle=orthogonalEdgeStyle;rounded=0;orthogonalLoop=1;jettySize=auto;html=1;entryX=1;entryY=0.5;entryDx=0;entryDy=0;" parent="1" target="w3264zR7rGeF_oMtsxfC-7" edge="1">
          <mxGeometry relative="1" as="geometry">
            <mxPoint x="2610" y="460" as="sourcePoint" />
          </mxGeometry>
        </mxCell>
        <mxCell id="w3264zR7rGeF_oMtsxfC-12" value="&lt;div&gt;Choice B/C&lt;br&gt;&lt;/div&gt;&lt;div&gt;//&#39;&#39;You gather your courage and decide to go to your best friend&#39;s house to rescue them&#39;&#39;//&lt;/div&gt;&lt;div&gt;&lt;br&gt;&lt;/div&gt;You arrive at their home, and it&#39;s eerily quiet and dark. The front door is wide open." style="rounded=0;whiteSpace=wrap;html=1;fillColor=#d80073;fontColor=#ffffff;strokeColor=#A50040;" parent="1" vertex="1">
          <mxGeometry x="2550" y="390" width="250" height="140" as="geometry" />
        </mxCell>
        <mxCell id="w3264zR7rGeF_oMtsxfC-45" style="edgeStyle=orthogonalEdgeStyle;rounded=0;orthogonalLoop=1;jettySize=auto;html=1;entryX=0.5;entryY=0;entryDx=0;entryDy=0;" parent="1" source="w3264zR7rGeF_oMtsxfC-18" target="w3264zR7rGeF_oMtsxfC-34" edge="1">
          <mxGeometry relative="1" as="geometry" />
        </mxCell>
        <mxCell id="w3264zR7rGeF_oMtsxfC-18" value="&lt;div&gt;Choice D&lt;br&gt;&lt;/div&gt;&#39;&#39;//You heave a sigh and decide to call your friend back to see what they &lt;br&gt;want. Sometimes they should just send a message instead of causing you &lt;br&gt;&lt;div&gt;needless anxiety!//&#39;&#39;&lt;/div&gt;&lt;div&gt;&lt;br&gt;&lt;/div&gt;Your heart pounds as you hear nothing but agonizing screams coming from &lt;br&gt;your best friend on the other end of the line. Panic surges through you &lt;br&gt;as you desperately try to make out what&#39;s happening, but it&#39;s just their&lt;br&gt; cries of pain and fear." style="rounded=0;whiteSpace=wrap;html=1;" parent="1" vertex="1">
          <mxGeometry x="4000" y="410" width="310" height="210" as="geometry" />
        </mxCell>
        <mxCell id="w3264zR7rGeF_oMtsxfC-23" value="&lt;div&gt;&lt;div&gt;Path pick up the phone&lt;/div&gt;&lt;/div&gt;&lt;div&gt;Choice B.1&lt;/div&gt;&lt;div&gt;&lt;br&gt;&lt;/div&gt;&lt;div&gt;//&#39;&#39;you don&#39;t care you open the flashlight on your phone and go inside!.&#39;&#39;//&lt;/div&gt;&lt;div&gt;&lt;br&gt;&lt;/div&gt;&lt;div&gt;It&#39;s completely silent inside. Your phone beeps, only 5% battery left. You know you should&#39;ve charged it earlier.&amp;nbsp; How are you going to find your best friend like this?&lt;/div&gt;&lt;div&gt;One thing is for sure you need to turn of your flashlight.&lt;br&gt;&lt;/div&gt;" style="rounded=0;whiteSpace=wrap;html=1;" parent="1" vertex="1">
          <mxGeometry x="1134" y="620" width="276" height="180" as="geometry" />
        </mxCell>
        <mxCell id="w3264zR7rGeF_oMtsxfC-30" value="&lt;div&gt;&lt;div&gt;Path pick up the phone&lt;/div&gt;&lt;div&gt;continue path&lt;br&gt;&lt;/div&gt;&lt;/div&gt;&lt;div&gt;Choice A.1/D1.1&lt;/div&gt;&lt;div&gt;&lt;br&gt;&lt;/div&gt;//&#39;&#39; &quot;//You decide it&#39;s time to act. Not today! You climb out of your window, determined to seek help.//&quot;&#39;&#39;//" style="rounded=0;whiteSpace=wrap;html=1;fillColor=#d80073;fontColor=#ffffff;strokeColor=#A50040;" parent="1" vertex="1">
          <mxGeometry x="-540" y="590" width="190" height="230" as="geometry" />
        </mxCell>
        <mxCell id="w3264zR7rGeF_oMtsxfC-33" value="&lt;div&gt;&lt;div&gt;&lt;div&gt;Path pick up the phone&lt;/div&gt;&lt;div&gt;Bad ending&lt;br&gt;&lt;/div&gt;&lt;/div&gt;&lt;div&gt;Choice B.2&lt;/div&gt;&lt;/div&gt;&lt;div&gt;&lt;br&gt;&lt;/div&gt;&lt;div&gt;//&#39;&#39;Maybe it&#39;s better to go around back, this doesn&#39;t look good..&#39;&#39;//&lt;/div&gt;&lt;div&gt;&lt;br&gt;&lt;/div&gt;&lt;p&gt;Instinctively, you decide to investigate the back of the house, wondering if they might be there. As you round the corner, you&#39;re met with an unsettling sight. The moonlight reveals an eerie masked figure lurking in the shadows, their face concealed behind a terrifying mask.&lt;/p&gt;&lt;p&gt;Before you can react, the assailant lunges at you, and your Halloween night takes a gruesome turn. Your story concludes with a nightmarish encounter with the masked killer.&lt;/p&gt;" style="rounded=0;whiteSpace=wrap;html=1;fillColor=#f8cecc;strokeColor=#b85450;" parent="1" vertex="1">
          <mxGeometry x="1760" y="630" width="350" height="320" as="geometry" />
        </mxCell>
        <mxCell id="w3264zR7rGeF_oMtsxfC-34" value="&lt;div&gt;Choice B/C/D.1&lt;br&gt;&lt;/div&gt;&lt;div&gt;//&#39;&#39;You gather your courage and decide to go to your best friend&#39;s house to rescue them&#39;&#39;//&lt;/div&gt;&lt;div&gt;&lt;br&gt;&lt;/div&gt;You arrive at their home, and it&#39;s eerily quiet and dark. The front door is wide open." style="rounded=0;whiteSpace=wrap;html=1;fillColor=#d80073;fontColor=#ffffff;strokeColor=#A50040;" parent="1" vertex="1">
          <mxGeometry x="2790" y="700" width="180" height="140" as="geometry" />
        </mxCell>
        <mxCell id="w3264zR7rGeF_oMtsxfC-60" style="edgeStyle=orthogonalEdgeStyle;rounded=0;orthogonalLoop=1;jettySize=auto;html=1;exitX=1;exitY=1;exitDx=0;exitDy=0;entryX=0.25;entryY=0;entryDx=0;entryDy=0;" parent="1" source="w3264zR7rGeF_oMtsxfC-38" target="w3264zR7rGeF_oMtsxfC-59" edge="1">
          <mxGeometry relative="1" as="geometry" />
        </mxCell>
        <mxCell id="w3264zR7rGeF_oMtsxfC-282" style="edgeStyle=orthogonalEdgeStyle;rounded=0;orthogonalLoop=1;jettySize=auto;html=1;exitX=0;exitY=0.75;exitDx=0;exitDy=0;entryX=0.5;entryY=0;entryDx=0;entryDy=0;" parent="1" source="w3264zR7rGeF_oMtsxfC-38" target="w3264zR7rGeF_oMtsxfC-58" edge="1">
          <mxGeometry relative="1" as="geometry" />
        </mxCell>
        <mxCell id="w3264zR7rGeF_oMtsxfC-38" value="Choice D.1&lt;br&gt;//&#39;&#39; &quot;//You frantically try to dial the emergency number, to explain the situation and request immediate assistance.//&quot;&#39;&#39;//&lt;br&gt;&lt;div style=&quot;&quot;&gt;&lt;font style=&quot;font-size: 12px;&quot;&gt;&lt;br&gt;&lt;/font&gt;&lt;/div&gt;&lt;div style=&quot;&quot;&gt;&lt;p id=&quot;docs-internal-guid-5c48ae1c-7fff-be2e-52c6-c457543fcb7f&quot; style=&quot;line-height:1.2;margin-top:0pt;margin-bottom:0pt;&quot; dir=&quot;ltr&quot;&gt;&lt;font style=&quot;font-size: 12px;&quot;&gt;Did you really think it was going to be this easy, never watched a slasher movie did you?&lt;/font&gt;&lt;/p&gt;&lt;font style=&quot;font-size: 12px;&quot;&gt;&lt;span style=&quot;font-family: Arial, sans-serif; color: rgb(0, 0, 0); background-color: transparent; font-weight: 400; font-style: normal; font-variant: normal; text-decoration: none; vertical-align: baseline;&quot;&gt;You sigh in frustration as the police dismiss your call. They&#39;ve likely received too many prank calls tonight and are prioritizing more urgent matters. &lt;/span&gt;&lt;span style=&quot;font-family: Arial, sans-serif; color: rgb(0, 0, 0); background-color: transparent; font-weight: 400; font-style: normal; font-variant: normal; text-decoration: none; vertical-align: baseline;&quot;&gt;&lt;br&gt;&lt;/span&gt;&lt;span style=&quot;font-family: Arial, sans-serif; color: rgb(0, 0, 0); background-color: transparent; font-weight: 400; font-style: normal; font-variant: normal; text-decoration: none; vertical-align: baseline;&quot;&gt;&lt;br&gt;&lt;/span&gt;&lt;span style=&quot;font-family: Arial, sans-serif; color: rgb(0, 0, 0); background-color: transparent; font-weight: 400; font-style: normal; font-variant: normal; text-decoration: none; vertical-align: baseline;&quot;&gt;A loud thump from downstairs grips you with fear, intensifying the night&#39;s horrors.&lt;/span&gt;&lt;/font&gt;&lt;/div&gt;&lt;div&gt;&lt;br&gt;&lt;/div&gt;&lt;div&gt;&lt;br&gt;&lt;/div&gt;" style="rounded=0;whiteSpace=wrap;html=1;" parent="1" vertex="1">
          <mxGeometry x="3686" y="620" width="260" height="240" as="geometry" />
        </mxCell>
        <mxCell id="w3264zR7rGeF_oMtsxfC-71" style="edgeStyle=orthogonalEdgeStyle;rounded=0;orthogonalLoop=1;jettySize=auto;html=1;exitX=0.25;exitY=1;exitDx=0;exitDy=0;entryX=0.5;entryY=0;entryDx=0;entryDy=0;" parent="1" source="w3264zR7rGeF_oMtsxfC-58" target="w3264zR7rGeF_oMtsxfC-70" edge="1">
          <mxGeometry relative="1" as="geometry" />
        </mxCell>
        <mxCell id="w3264zR7rGeF_oMtsxfC-73" style="edgeStyle=orthogonalEdgeStyle;rounded=0;orthogonalLoop=1;jettySize=auto;html=1;entryX=0.5;entryY=0;entryDx=0;entryDy=0;" parent="1" source="w3264zR7rGeF_oMtsxfC-58" target="w3264zR7rGeF_oMtsxfC-72" edge="1">
          <mxGeometry relative="1" as="geometry" />
        </mxCell>
        <mxCell id="w3264zR7rGeF_oMtsxfC-58" value="Choice D.1.1&lt;br&gt;//&#39;&#39; &quot;//You decide it&#39;s time to act. Not today! You climb out of your window, determined to seek help.//&quot;&#39;&#39;//&lt;br&gt;&lt;div&gt;&lt;br&gt;&lt;/div&gt;&lt;div&gt;You slip and fall, Injured but determined, you push through the pain and make your way to your best friend&#39;s house. As you approach, you notice a trail of blood leading to the front door, which stands wide open, ominously inviting.&lt;/div&gt;&lt;div&gt;&lt;br&gt;&lt;/div&gt;&lt;div&gt;*- health&lt;br&gt;&lt;/div&gt;&lt;div&gt;&lt;br&gt;&lt;/div&gt;" style="rounded=0;whiteSpace=wrap;html=1;fillColor=#ffe6cc;strokeColor=#d79b00;" parent="1" vertex="1">
          <mxGeometry x="3259" y="840" width="340" height="170" as="geometry" />
        </mxCell>
        <mxCell id="3ocRaK4UEdnMgbk3KAv0-2" style="edgeStyle=orthogonalEdgeStyle;rounded=0;orthogonalLoop=1;jettySize=auto;html=1;exitX=0.5;exitY=1;exitDx=0;exitDy=0;" edge="1" parent="1" source="w3264zR7rGeF_oMtsxfC-59" target="w3264zR7rGeF_oMtsxfC-62">
          <mxGeometry relative="1" as="geometry" />
        </mxCell>
        <mxCell id="w3264zR7rGeF_oMtsxfC-59" value="&lt;div&gt;Choice D.1.2&lt;/div&gt;&lt;div&gt;&lt;br&gt;&lt;/div&gt;//&#39;&#39; &quot;//You reassure yourself that the loud noise was likely just caused by your clumsy cat, Mr. Whiskers. //&quot;&#39;&#39;//&lt;br&gt;&lt;div&gt;&lt;br&gt;&lt;/div&gt;Your heart pounds as the door swings open, revealing a masked figure &lt;br/&gt;wielding a bloodied knife. Fear courses through your veins, and your &lt;br/&gt;mind races for a plan. Your life may depend on the choices you make &lt;br/&gt;next.&lt;div&gt;&lt;br&gt;&lt;/div&gt;&lt;div&gt;&lt;br&gt;&lt;/div&gt;" style="rounded=0;whiteSpace=wrap;html=1;" parent="1" vertex="1">
          <mxGeometry x="3860" y="910" width="281" height="220" as="geometry" />
        </mxCell>
        <mxCell id="w3264zR7rGeF_oMtsxfC-62" value="Choice D1.2.1&lt;br&gt;&lt;font style=&quot;font-size: 12px;&quot;&gt;//&#39;&#39; &quot;//&amp;nbsp;You accept your fate, realizing that there&#39;s little you can do at this moment. //&quot;&#39;&#39;//&lt;br&gt;&lt;/font&gt;&lt;div&gt;&lt;font style=&quot;font-size: 12px;&quot;&gt;&lt;br&gt;&lt;/font&gt;&lt;/div&gt;&lt;p id=&quot;docs-internal-guid-ea758474-7fff-4bb1-020e-e15e3560f407&quot; style=&quot;line-height: 1.2; margin-top: 0pt; margin-bottom: 0pt;&quot; dir=&quot;ltr&quot;&gt;&lt;font style=&quot;font-size: 12px;&quot;&gt;The masked figure approaches, and in a swift and chilling motion, they end your Halloween night. Darkness envelops you, and your story concludes in an abrupt and unsettling manner.&lt;/font&gt;&lt;/p&gt;&lt;p style=&quot;line-height: 1.2; margin-top: 0pt; margin-bottom: 0pt;&quot; dir=&quot;ltr&quot;&gt;&lt;font style=&quot;font-size: 12px;&quot;&gt;&lt;span style=&quot;font-family: Arial, sans-serif; color: rgb(0, 0, 0); background-color: transparent; font-weight: 400; font-style: normal; font-variant: normal; text-decoration: none; vertical-align: baseline;&quot;&gt;The killer gets away and finds their next victim.&lt;/span&gt;&lt;/font&gt;&lt;/p&gt;&lt;p style=&quot;line-height: 1.2; margin-top: 12pt; margin-bottom: 12pt;&quot; dir=&quot;ltr&quot;&gt;&lt;font style=&quot;font-size: 12px;&quot;&gt;&lt;span style=&quot;font-family: Arial, sans-serif; color: rgb(0, 0, 0); background-color: transparent; font-weight: 400; font-style: normal; font-variant: normal; text-decoration: none; vertical-align: baseline;&quot;&gt;Your Halloween night ends here.&lt;/span&gt;&lt;/font&gt;&lt;/p&gt;&lt;div&gt;&lt;br&gt;&lt;/div&gt;" style="rounded=0;whiteSpace=wrap;html=1;fillColor=#f8cecc;strokeColor=#b85450;" parent="1" vertex="1">
          <mxGeometry x="3850" y="1170" width="260" height="210" as="geometry" />
        </mxCell>
        <mxCell id="w3264zR7rGeF_oMtsxfC-66" value="" style="edgeStyle=orthogonalEdgeStyle;rounded=0;orthogonalLoop=1;jettySize=auto;html=1;" parent="1" source="w3264zR7rGeF_oMtsxfC-64" target="w3264zR7rGeF_oMtsxfC-65" edge="1">
          <mxGeometry relative="1" as="geometry" />
        </mxCell>
        <mxCell id="w3264zR7rGeF_oMtsxfC-300" style="edgeStyle=orthogonalEdgeStyle;rounded=0;orthogonalLoop=1;jettySize=auto;html=1;exitX=1;exitY=0.5;exitDx=0;exitDy=0;" parent="1" source="w3264zR7rGeF_oMtsxfC-64" edge="1">
          <mxGeometry relative="1" as="geometry">
            <mxPoint x="5290" y="1300" as="targetPoint" />
          </mxGeometry>
        </mxCell>
        <mxCell id="w3264zR7rGeF_oMtsxfC-64" value="&lt;div&gt;Choice D.1.2.2&lt;/div&gt;&lt;br&gt;//&#39;&#39; &quot;// You seize the opportunity to escape, knowing it&#39;s your only chance. Without a second thought, you jump out of your window. //&quot;&#39;&#39;//&lt;br&gt;&lt;div&gt;&lt;br&gt;&lt;/div&gt;&lt;div&gt;&lt;p&gt;You break your leg and scream, twisting in agonizing pain. You look up at your window and see the killer making a throat-slitting gesture while they watch you lying there.&lt;/p&gt;&lt;p&gt;*-health&lt;br&gt;&lt;/p&gt;&lt;/div&gt;&lt;div&gt;.&amp;nbsp;&lt;/div&gt;&lt;div&gt;&lt;br&gt;&lt;/div&gt;&lt;div&gt;&lt;br&gt;&lt;/div&gt;&lt;div&gt;&lt;br&gt;&lt;/div&gt;" style="rounded=0;whiteSpace=wrap;html=1;fillColor=#ffe6cc;strokeColor=#d79b00;" parent="1" vertex="1">
          <mxGeometry x="4210" y="1020" width="430" height="250" as="geometry" />
        </mxCell>
        <mxCell id="w3264zR7rGeF_oMtsxfC-302" style="edgeStyle=orthogonalEdgeStyle;rounded=0;orthogonalLoop=1;jettySize=auto;html=1;exitX=1;exitY=1;exitDx=0;exitDy=0;entryX=0;entryY=0.75;entryDx=0;entryDy=0;" parent="1" source="w3264zR7rGeF_oMtsxfC-65" target="w3264zR7rGeF_oMtsxfC-81" edge="1">
          <mxGeometry relative="1" as="geometry" />
        </mxCell>
        <mxCell id="w3264zR7rGeF_oMtsxfC-305" style="edgeStyle=orthogonalEdgeStyle;rounded=0;orthogonalLoop=1;jettySize=auto;html=1;exitX=0.5;exitY=1;exitDx=0;exitDy=0;" parent="1" source="w3264zR7rGeF_oMtsxfC-65" target="w3264zR7rGeF_oMtsxfC-84" edge="1">
          <mxGeometry relative="1" as="geometry" />
        </mxCell>
        <mxCell id="w3264zR7rGeF_oMtsxfC-65" value="Choice D1.2.2.1&lt;div&gt;//&#39;&#39; &quot;// In agonizing pain, you crawl towards your neighbor&#39;s house, screaming for help as loudly as you can./&quot;&#39;&#39;//&lt;/div&gt;&lt;div&gt;&lt;br&gt;&lt;/div&gt;&lt;div&gt;Fortunately, your neighbor hears your cries and rushes to your aid.&amp;nbsp;&lt;/div&gt;&lt;div&gt;&lt;br&gt;&lt;/div&gt;&lt;div&gt;With&lt;br&gt; the masked killer closing in on you, your neighbor helps you get inside&lt;br&gt; and securely locks the door.&amp;nbsp;&lt;/div&gt;&lt;div&gt;&lt;br&gt;&lt;/div&gt;&lt;div&gt;You made it for now, against all odds..&quot;&lt;/div&gt;" style="whiteSpace=wrap;html=1;rounded=0;" parent="1" vertex="1">
          <mxGeometry x="4150" y="1310" width="320" height="190" as="geometry" />
        </mxCell>
        <mxCell id="w3264zR7rGeF_oMtsxfC-67" value="Choice D.1.2.2&lt;div&gt;//&#39;&#39; &quot;&quot;Thankfully, your phone is in your back pocket. You reach for it, &lt;br&gt;although it hurts to move. With great effort, you manage to retrieve &lt;br&gt;your phone.&quot;&#39;&#39;//&lt;/div&gt;&lt;div&gt;&lt;br&gt;&lt;/div&gt;&lt;div&gt;&lt;p&gt;To your dismay, it&#39;s completely busted up and no longer functions.&lt;/p&gt;&lt;p&gt;As you look up from your useless phone, the last thing you see is the killer&#39;s menacing mask, followed by an excruciating pain in your stomach...&quot;&lt;/p&gt;&lt;/div&gt;" style="whiteSpace=wrap;html=1;fillColor=#f8cecc;strokeColor=#b85450;rounded=0;" parent="1" vertex="1">
          <mxGeometry x="5140" y="1320" width="330" height="220" as="geometry" />
        </mxCell>
        <mxCell id="w3264zR7rGeF_oMtsxfC-70" value="&lt;div&gt;Choice B2/D1.1.1&lt;/div&gt;//&#39;&#39;Maybe it&#39;s better to go around back, this doesn&#39;t look good..&#39;&#39;//&lt;br&gt;&lt;br&gt;&lt;div&gt;&lt;br&gt;&lt;/div&gt;&lt;p&gt;Instinctively, you decide to investigate the back of &lt;br&gt;the house, wondering if they might be there. As you round the corner, &lt;br&gt;you&#39;re met with an unsettling sight. The moonlight reveals an eerie &lt;br&gt;masked figure lurking in the shadows, their face concealed behind a &lt;br&gt;terrifying mask.&lt;/p&gt;&lt;p&gt;Before you can react, the assailant lunges at &lt;br&gt;you, and your Halloween night takes a gruesome turn. Your story &lt;br&gt;concludes with a nightmarish encounter with the masked killer.&lt;/p&gt;" style="rounded=0;whiteSpace=wrap;html=1;fillColor=#d80073;fontColor=#ffffff;strokeColor=#A50040;" parent="1" vertex="1">
          <mxGeometry x="2510" y="1150" width="356" height="280" as="geometry" />
        </mxCell>
        <mxCell id="w3264zR7rGeF_oMtsxfC-76" style="edgeStyle=orthogonalEdgeStyle;rounded=0;orthogonalLoop=1;jettySize=auto;html=1;exitX=0;exitY=1;exitDx=0;exitDy=0;entryX=0.449;entryY=-0.038;entryDx=0;entryDy=0;entryPerimeter=0;" parent="1" source="w3264zR7rGeF_oMtsxfC-72" target="w3264zR7rGeF_oMtsxfC-78" edge="1">
          <mxGeometry relative="1" as="geometry">
            <mxPoint x="3416" y="1380" as="targetPoint" />
          </mxGeometry>
        </mxCell>
        <mxCell id="w3264zR7rGeF_oMtsxfC-283" style="edgeStyle=orthogonalEdgeStyle;rounded=0;orthogonalLoop=1;jettySize=auto;html=1;exitX=0.75;exitY=1;exitDx=0;exitDy=0;" parent="1" source="w3264zR7rGeF_oMtsxfC-72" edge="1">
          <mxGeometry relative="1" as="geometry">
            <mxPoint x="3500" y="1310" as="targetPoint" />
          </mxGeometry>
        </mxCell>
        <mxCell id="w3264zR7rGeF_oMtsxfC-72" value="&lt;div&gt;Choice D1.1.1.2&lt;/div&gt;&lt;div&gt;//&#39;&#39;&quot;You gather your courage and enter through the front door, softly calling for your friend..&#39;&#39;//&lt;/div&gt;&lt;div&gt;&lt;br&gt;&lt;/div&gt;As you call out, the silence in the house is deafening. The smell of &lt;br/&gt;fresh blood lingers in the air, and your heart races as you follow the &lt;br/&gt;trail, which leads you into the kitchen. Doubts and fear flood your &lt;br/&gt;mind, but you know there&#39;s no turning back now." style="rounded=0;whiteSpace=wrap;html=1;" parent="1" vertex="1">
          <mxGeometry x="3295" y="1110" width="270" height="170" as="geometry" />
        </mxCell>
        <mxCell id="w3264zR7rGeF_oMtsxfC-306" style="edgeStyle=orthogonalEdgeStyle;rounded=0;orthogonalLoop=1;jettySize=auto;html=1;exitX=1;exitY=0.5;exitDx=0;exitDy=0;" parent="1" source="w3264zR7rGeF_oMtsxfC-77" target="w3264zR7rGeF_oMtsxfC-136" edge="1">
          <mxGeometry relative="1" as="geometry" />
        </mxCell>
        <mxCell id="w3264zR7rGeF_oMtsxfC-312" style="edgeStyle=orthogonalEdgeStyle;rounded=0;orthogonalLoop=1;jettySize=auto;html=1;exitX=0.5;exitY=1;exitDx=0;exitDy=0;" parent="1" source="w3264zR7rGeF_oMtsxfC-77" target="w3264zR7rGeF_oMtsxfC-135" edge="1">
          <mxGeometry relative="1" as="geometry" />
        </mxCell>
        <mxCell id="w3264zR7rGeF_oMtsxfC-77" value="&lt;div&gt;Choice D1.1.1.2.2&lt;/div&gt;&lt;div&gt;//&#39;&#39;&quot;You&#39;re not in the best shape, but you decide to head upstairs where you&lt;br&gt; know there are some medical supplies.&quot; &#39;&#39;//&lt;/div&gt;&lt;div&gt;&lt;br&gt;&lt;/div&gt;Quietly and carefully, you &lt;br&gt;attempt to sneak up the stairs. Suddenly, you freeze as the sound of a &lt;br&gt;creaking door echoes down the upstairs hallway." style="rounded=0;whiteSpace=wrap;html=1;" parent="1" vertex="1">
          <mxGeometry x="3400" y="1320" width="390" height="170" as="geometry" />
        </mxCell>
        <mxCell id="w3264zR7rGeF_oMtsxfC-284" style="edgeStyle=orthogonalEdgeStyle;rounded=0;orthogonalLoop=1;jettySize=auto;html=1;exitX=0;exitY=0.75;exitDx=0;exitDy=0;entryX=0.25;entryY=0;entryDx=0;entryDy=0;" parent="1" source="w3264zR7rGeF_oMtsxfC-78" target="w3264zR7rGeF_oMtsxfC-137" edge="1">
          <mxGeometry relative="1" as="geometry" />
        </mxCell>
        <mxCell id="w3264zR7rGeF_oMtsxfC-310" style="edgeStyle=orthogonalEdgeStyle;rounded=0;orthogonalLoop=1;jettySize=auto;html=1;exitX=1;exitY=0.5;exitDx=0;exitDy=0;entryX=0.5;entryY=0;entryDx=0;entryDy=0;" parent="1" source="w3264zR7rGeF_oMtsxfC-78" target="w3264zR7rGeF_oMtsxfC-139" edge="1">
          <mxGeometry relative="1" as="geometry" />
        </mxCell>
        <mxCell id="w3264zR7rGeF_oMtsxfC-78" value="&lt;div&gt;Choice D1.1.1.2.1&lt;br&gt;&lt;/div&gt;&lt;div&gt;//&#39;&#39;You&#39;re determined to find your friend and ensure their safety, so you &lt;br/&gt;follow the trail of blood through the eerie darkness of the house.&#39;&#39;//&lt;/div&gt;&lt;div&gt;&lt;br&gt;&lt;/div&gt;&lt;div&gt;In the kitchen, your heart sinks as you find someone lying in a gruesome&lt;br/&gt; puddle of blood. The dim light reveals a horrifying sight, and the &lt;br/&gt;unsettling reality begins to set in.&lt;/div&gt;&lt;div&gt;&lt;br&gt;&lt;/div&gt;" style="rounded=0;whiteSpace=wrap;html=1;" parent="1" vertex="1">
          <mxGeometry x="2975" y="1330" width="295" height="180" as="geometry" />
        </mxCell>
        <mxCell id="w3264zR7rGeF_oMtsxfC-293" style="edgeStyle=orthogonalEdgeStyle;rounded=0;orthogonalLoop=1;jettySize=auto;html=1;exitX=0.25;exitY=1;exitDx=0;exitDy=0;entryX=0.75;entryY=0;entryDx=0;entryDy=0;" parent="1" source="w3264zR7rGeF_oMtsxfC-81" target="w3264zR7rGeF_oMtsxfC-88" edge="1">
          <mxGeometry relative="1" as="geometry" />
        </mxCell>
        <mxCell id="w3264zR7rGeF_oMtsxfC-81" value="Choice D1.2.2.1.2&lt;div&gt;//&#39;&#39; &quot;//&quot;Unable to walk properly, you instruct your neighbor to check the backdoor and windows.//&quot;&#39;&#39;//&lt;/div&gt;&lt;div&gt;&lt;br&gt;&lt;/div&gt;&lt;div&gt;He hurries to the backdoor, leaving you struggling to catch your breath &lt;br&gt;for a moment. Suddenly, the backdoor slams into the wall, and your &lt;br&gt;neighbor&#39;s blood-curdling scream pierces the air. &#39;Noooooo!&#39;&quot;&lt;/div&gt;&lt;div&gt;&lt;br&gt;&lt;/div&gt;&lt;div&gt;You quickly look around if you can see something that might help you protect yourself.&lt;br&gt;&lt;/div&gt;&lt;div&gt;&lt;br&gt;&lt;/div&gt;" style="whiteSpace=wrap;html=1;rounded=0;" parent="1" vertex="1">
          <mxGeometry x="5070" y="1580" width="430" height="190" as="geometry" />
        </mxCell>
        <mxCell id="w3264zR7rGeF_oMtsxfC-98" style="edgeStyle=orthogonalEdgeStyle;rounded=0;orthogonalLoop=1;jettySize=auto;html=1;exitX=0.75;exitY=1;exitDx=0;exitDy=0;" parent="1" source="w3264zR7rGeF_oMtsxfC-84" target="w3264zR7rGeF_oMtsxfC-97" edge="1">
          <mxGeometry relative="1" as="geometry" />
        </mxCell>
        <mxCell id="w3264zR7rGeF_oMtsxfC-307" style="edgeStyle=orthogonalEdgeStyle;rounded=0;orthogonalLoop=1;jettySize=auto;html=1;exitX=0.25;exitY=1;exitDx=0;exitDy=0;" parent="1" source="w3264zR7rGeF_oMtsxfC-84" target="w3264zR7rGeF_oMtsxfC-106" edge="1">
          <mxGeometry relative="1" as="geometry" />
        </mxCell>
        <mxCell id="w3264zR7rGeF_oMtsxfC-84" value="Choice D1.2.2.1.1&lt;div&gt;.//&#39;&#39; &quot;//&amp;nbsp;You and your best neighbor understand that sticking together is crucial, given your injuries and the dangerous situation. You decide to remain by each other&#39;s side//&quot;&#39;&#39;//&lt;/div&gt;&lt;div&gt;&lt;br&gt;&lt;/div&gt;&quot;Due to your inability to walk, you and your neighbor make the decision &lt;br&gt;to barricade yourselves in the study room downstairs. With just a small &lt;br&gt;&lt;div&gt;window, it&#39;s the most secluded room in the house.&amp;nbsp;&lt;/div&gt;&lt;div&gt;&lt;br&gt;&lt;/div&gt;&lt;div&gt;You both meticulously search the room for valuable tools, medical supplies, &lt;br&gt;and perhaps even a weapon. Anything that might prove useful in this dire&lt;br&gt; situation is fair game&lt;/div&gt;&lt;br&gt;&lt;div&gt;&lt;br&gt;&lt;/div&gt;&lt;div&gt;&lt;br&gt;&lt;/div&gt;" style="whiteSpace=wrap;html=1;rounded=0;" parent="1" vertex="1">
          <mxGeometry x="4120" y="1590" width="300" height="290" as="geometry" />
        </mxCell>
        <mxCell id="w3264zR7rGeF_oMtsxfC-291" style="edgeStyle=orthogonalEdgeStyle;rounded=0;orthogonalLoop=1;jettySize=auto;html=1;exitX=1;exitY=1;exitDx=0;exitDy=0;" parent="1" source="w3264zR7rGeF_oMtsxfC-87" edge="1">
          <mxGeometry relative="1" as="geometry">
            <mxPoint x="6100" y="2240" as="targetPoint" />
          </mxGeometry>
        </mxCell>
        <mxCell id="w3264zR7rGeF_oMtsxfC-292" style="edgeStyle=orthogonalEdgeStyle;rounded=0;orthogonalLoop=1;jettySize=auto;html=1;exitX=0.75;exitY=1;exitDx=0;exitDy=0;" parent="1" source="w3264zR7rGeF_oMtsxfC-87" edge="1">
          <mxGeometry relative="1" as="geometry">
            <mxPoint x="5650" y="2200" as="targetPoint" />
          </mxGeometry>
        </mxCell>
        <mxCell id="w3264zR7rGeF_oMtsxfC-87" value="Choice D1.2.2.1.2.2&lt;div&gt;//&#39;&#39; &quot;//You reach for the nearest object within your grasp, a small but weighty &lt;br&gt;clown statue. You can&#39;t help but notice that your neighbor&#39;s house is &lt;br&gt;filled with clown figurines, an odd detail in such a dire moment. //&quot;&#39;&#39;//&lt;/div&gt;&lt;div&gt;&lt;br&gt;&lt;/div&gt;&quot;As the killer, their mask smeared with blood, approaches, they swing &lt;br&gt;their knife towards you.&amp;nbsp;The blade slices into your arm, leaving a painful gash. In &lt;br&gt;response, you rapidly extend your other arm and send the clown statue &lt;br&gt;&lt;div&gt;crashing onto the killer&#39;s head.&quot;&lt;/div&gt;&lt;div&gt;&lt;br&gt;&lt;/div&gt;&lt;div&gt;The killer stumbles and falls to the ground.&lt;/div&gt;&lt;br&gt;&lt;div&gt;*- health&lt;br&gt;&lt;/div&gt;" style="whiteSpace=wrap;html=1;rounded=0;fillColor=#ffe6cc;strokeColor=#d79b00;" parent="1" vertex="1">
          <mxGeometry x="5350" y="1895" width="400" height="220" as="geometry" />
        </mxCell>
        <mxCell id="w3264zR7rGeF_oMtsxfC-88" value="Choice D1.2.2.1.2.1&lt;br&gt;&lt;div&gt;//&#39;&#39; &quot;//You decide to take a chance and attempt to stumble toward the fireplace to reach for the poker //&quot;&#39;&#39;//&lt;/div&gt;&lt;div&gt;&lt;br&gt;&lt;/div&gt;However, your movements aren&#39;t swift enough in this terrifying moment. &lt;br&gt;The killer quickly catches up to you, and a stabbing pain pierces &lt;br&gt;between your ribs. As you extend your hand to grab the poker, another &lt;br&gt;sharp stab strikes your abdomen. Regrettably, you don&#39;t make it through &lt;br&gt;this Halloween night.&lt;div&gt;&lt;br&gt;&lt;/div&gt;&lt;div&gt;&lt;br&gt;&lt;/div&gt;&lt;br&gt;&lt;div&gt;&lt;br&gt;&lt;/div&gt;" style="whiteSpace=wrap;html=1;rounded=0;fillColor=#f8cecc;strokeColor=#b85450;" parent="1" vertex="1">
          <mxGeometry x="4940" y="1895" width="400" height="210" as="geometry" />
        </mxCell>
        <mxCell id="w3264zR7rGeF_oMtsxfC-94" value="Choice D1.2.2.1.2.2.2/D1.2.2.1.2.3.2&lt;div&gt;//&#39;&#39; &quot;/You&#39;re no fool, and having watched enough scary movies, you know to make sure the killer is truly dead. //&quot;&#39;&#39;//&lt;/div&gt;&lt;div&gt;&lt;br&gt;&lt;/div&gt;As you cautiously approach the killer, a sinking feeling in your gut &lt;br/&gt;grows. You&#39;re determined to finish the job, but just as you reach out, &lt;br/&gt;they unexpectedly grab the knife. In a lightning-fast motion, they drive&lt;br/&gt; it deep into your head, extinguishing your hope and plunging you into &lt;br/&gt;an abyss of darkness." style="whiteSpace=wrap;html=1;rounded=0;fillColor=#f8cecc;strokeColor=#b85450;" parent="1" vertex="1">
          <mxGeometry x="5930" y="2250" width="400" height="170" as="geometry" />
        </mxCell>
        <mxCell id="w3264zR7rGeF_oMtsxfC-120" style="edgeStyle=orthogonalEdgeStyle;rounded=0;orthogonalLoop=1;jettySize=auto;html=1;exitX=0.25;exitY=1;exitDx=0;exitDy=0;entryX=0.532;entryY=-0.002;entryDx=0;entryDy=0;entryPerimeter=0;" parent="1" source="w3264zR7rGeF_oMtsxfC-96" target="w3264zR7rGeF_oMtsxfC-122" edge="1">
          <mxGeometry relative="1" as="geometry">
            <mxPoint x="5286.222222222222" y="2460" as="targetPoint" />
          </mxGeometry>
        </mxCell>
        <mxCell id="w3264zR7rGeF_oMtsxfC-296" style="edgeStyle=orthogonalEdgeStyle;rounded=0;orthogonalLoop=1;jettySize=auto;html=1;exitX=1;exitY=1;exitDx=0;exitDy=0;" parent="1" source="w3264zR7rGeF_oMtsxfC-96" target="w3264zR7rGeF_oMtsxfC-124" edge="1">
          <mxGeometry relative="1" as="geometry" />
        </mxCell>
        <mxCell id="w3264zR7rGeF_oMtsxfC-96" value="Choice D1.2.2.1.2.2.1/D1.2.2.1.2.3.1&lt;div&gt;//&#39;&#39; &quot;/As fast as you can you stumble to the backdoor.//&quot;&#39;&#39;//&lt;/div&gt;&lt;div&gt;&lt;br&gt;&lt;/div&gt;&lt;div&gt;As quickly as your pain allows, you stumble toward the backdoor. The &lt;br&gt;blood from your neighbor makes the floor slippery, and you do your best &lt;br&gt;not to look at his lifeless body. However, you can&#39;t help but catch a &lt;br&gt;glimpse&lt;br&gt;&lt;p&gt;Fortunately, you succeed in making it outside. &lt;br&gt;&lt;/p&gt;&lt;/div&gt;" style="whiteSpace=wrap;html=1;rounded=0;" parent="1" vertex="1">
          <mxGeometry x="5430" y="2210" width="400" height="230" as="geometry" />
        </mxCell>
        <mxCell id="w3264zR7rGeF_oMtsxfC-304" style="edgeStyle=orthogonalEdgeStyle;rounded=0;orthogonalLoop=1;jettySize=auto;html=1;exitX=0.75;exitY=1;exitDx=0;exitDy=0;entryX=0.5;entryY=0;entryDx=0;entryDy=0;" parent="1" source="w3264zR7rGeF_oMtsxfC-97" target="w3264zR7rGeF_oMtsxfC-117" edge="1">
          <mxGeometry relative="1" as="geometry" />
        </mxCell>
        <mxCell id="w3264zR7rGeF_oMtsxfC-97" value="Choice D1.2.2.1.1.2&lt;div&gt;//&#39;&#39; &quot;// You equip yourself with a letter opener, and your neighbor opts for the &lt;br&gt;heaviest book they could find. They position themselves by the door.//&quot;&#39;&#39;//&lt;/div&gt;&lt;div&gt;&lt;br&gt;&lt;/div&gt;Outside, the killer starts to pound on the door, revealing its &lt;br&gt;vulnerability. The door begins to crack under the aggressive force the &lt;br&gt;&lt;div&gt;killer is applying.&quot;&lt;/div&gt;&lt;div&gt;&lt;br&gt;&lt;/div&gt;&lt;div&gt;&lt;br&gt;&lt;/div&gt;" style="whiteSpace=wrap;html=1;rounded=0;" parent="1" vertex="1">
          <mxGeometry x="4570" y="1960" width="320" height="200" as="geometry" />
        </mxCell>
        <mxCell id="w3264zR7rGeF_oMtsxfC-99" style="edgeStyle=orthogonalEdgeStyle;rounded=0;orthogonalLoop=1;jettySize=auto;html=1;exitX=1;exitY=1;exitDx=0;exitDy=0;entryX=0.523;entryY=-0.005;entryDx=0;entryDy=0;entryPerimeter=0;" parent="1" source="w3264zR7rGeF_oMtsxfC-81" target="w3264zR7rGeF_oMtsxfC-87" edge="1">
          <mxGeometry relative="1" as="geometry" />
        </mxCell>
        <mxCell id="w3264zR7rGeF_oMtsxfC-308" style="edgeStyle=orthogonalEdgeStyle;rounded=0;orthogonalLoop=1;jettySize=auto;html=1;exitX=0.75;exitY=1;exitDx=0;exitDy=0;" parent="1" source="w3264zR7rGeF_oMtsxfC-106" target="w3264zR7rGeF_oMtsxfC-108" edge="1">
          <mxGeometry relative="1" as="geometry" />
        </mxCell>
        <mxCell id="w3264zR7rGeF_oMtsxfC-309" style="edgeStyle=orthogonalEdgeStyle;rounded=0;orthogonalLoop=1;jettySize=auto;html=1;exitX=0.25;exitY=1;exitDx=0;exitDy=0;entryX=0.25;entryY=0;entryDx=0;entryDy=0;" parent="1" source="w3264zR7rGeF_oMtsxfC-106" target="w3264zR7rGeF_oMtsxfC-107" edge="1">
          <mxGeometry relative="1" as="geometry" />
        </mxCell>
        <mxCell id="w3264zR7rGeF_oMtsxfC-106" value="Choice D1.2.2.1.1.1&lt;div&gt;//&#39;&#39; &quot;// You press your ear against the door, attempting to discern the killer&#39;s location//&quot;&#39;&#39;//&lt;/div&gt;&lt;div&gt;&lt;br&gt;&lt;/div&gt;&lt;p&gt;Footsteps echo in the hallway; it&#39;s likely the killer. Your options narrow down to one: the small window.&lt;/p&gt;&lt;p&gt;Both you and your neighbor work together to pry it open. It looks like it could fit one person.&lt;/p&gt;&lt;p&gt;The question remains: Who will go first?&quot;&lt;/p&gt;&lt;div&gt;&lt;br&gt;&lt;/div&gt;&lt;div&gt;&lt;br&gt;&lt;/div&gt;" style="whiteSpace=wrap;html=1;rounded=0;" parent="1" vertex="1">
          <mxGeometry x="3900" y="1950" width="360" height="220" as="geometry" />
        </mxCell>
        <mxCell id="w3264zR7rGeF_oMtsxfC-107" value="Choice D1.2.2.1.1.1.1&lt;div&gt;//&#39;&#39; &quot;// It&#39;s my story I go first!//&quot;&#39;&#39;//&lt;/div&gt;&lt;div&gt;&lt;br&gt;&lt;/div&gt;&lt;p&gt;&quot;As you struggle to wiggle your way through the narrow window. The killer begins to bang on the door. Panic sets in, and your injury only complicates matters, making it even more challenging to squeeze through this tight space.&lt;/p&gt;&lt;p&gt;With a final effort, you manage to escape, landing in the garden with a loud thud. However, your hand grazes the pointed end of the garden fence, causing a sharp pain. You eventually free your hand, but the commotion has attracted the killer&#39;s attention.&lt;/p&gt;&lt;p&gt;Your chances of escaping dwindle as the killer emerges from the house, wielding a menacing knife. They charge towards you with lethal intent.&lt;/p&gt;&lt;p&gt;&quot;Your neighbor, on the other hand, makes a hasty escape through the backdoor.&lt;/p&gt;&lt;p&gt;They successfully survive this horrific Halloween night.&quot;&lt;/p&gt;&lt;div&gt;&lt;br&gt;&lt;/div&gt;&lt;div&gt;&lt;br&gt;&lt;/div&gt;&lt;div&gt;&lt;br&gt;&lt;/div&gt;" style="whiteSpace=wrap;html=1;rounded=0;fillColor=#f8cecc;strokeColor=#b85450;" parent="1" vertex="1">
          <mxGeometry x="3825" y="2240" width="270" height="500" as="geometry" />
        </mxCell>
        <mxCell id="w3264zR7rGeF_oMtsxfC-108" value="Choice D1.2.2.1.1.1.2&lt;div&gt;//&#39;&#39; &quot;// Let the neighbor go first then they might be able to help you get outside.//&quot;&#39;&#39;//&lt;/div&gt;&lt;div&gt;&lt;br&gt;&lt;/div&gt;&lt;p id=&quot;docs-internal-guid-da8f332b-7fff-361f-a46c-3ee51784181e&quot; style=&quot;line-height: 1.2; margin-top: 0pt; margin-bottom: 0pt;&quot; dir=&quot;ltr&quot;&gt;&lt;font style=&quot;font-size: 12px;&quot;&gt;Your neighbor goes first, managing to squeeze through the small window, although it&#39;s a tight fit. He reaches out to help you, but your injured leg makes it challenging to maneuver. As you struggle to wiggle your way through, the killer suddenly appears behind your neighbor.&lt;/font&gt;&lt;/p&gt;&lt;p style=&quot;line-height: 1.2; margin-top: 12pt; margin-bottom: 12pt;&quot; dir=&quot;ltr&quot;&gt;&lt;font style=&quot;font-size: 12px;&quot;&gt;&lt;span style=&quot;font-family: Arial, sans-serif; color: rgb(0, 0, 0); background-color: transparent; font-weight: 400; font-style: normal; font-variant: normal; text-decoration: none; vertical-align: baseline;&quot;&gt;In a futile attempt to warn him, you cry out, but it&#39;s too late. The killer strikes, and your neighbor is brutally killed right before your eyes.&lt;/span&gt;&lt;/font&gt;&lt;/p&gt;&lt;p style=&quot;line-height: 1.2; margin-top: 12pt; margin-bottom: 12pt;&quot; dir=&quot;ltr&quot;&gt;&lt;font style=&quot;font-size: 12px;&quot;&gt;&lt;span style=&quot;font-family: Arial, sans-serif; color: rgb(0, 0, 0); background-color: transparent; font-weight: 400; font-style: normal; font-variant: normal; text-decoration: none; vertical-align: baseline;&quot;&gt;In a panic, you manage to retreat back inside the window, narrowly escaping the killer&#39;s grasp.&amp;nbsp;&lt;/span&gt;&lt;/font&gt;&lt;/p&gt;&lt;p style=&quot;line-height: 1.2; margin-top: 12pt; margin-bottom: 12pt;&quot; dir=&quot;ltr&quot;&gt;&lt;font style=&quot;font-size: 12px;&quot;&gt;&lt;span style=&quot;font-family: Arial, sans-serif; color: rgb(0, 0, 0); background-color: transparent; font-weight: 400; font-style: normal; font-variant: normal; text-decoration: none; vertical-align: baseline;&quot;&gt;With great difficulty, you hobble away from the window, grateful to have narrowly escaped the same fate as your neighbor.&amp;nbsp;&lt;/span&gt;&lt;/font&gt;&lt;/p&gt;&lt;p style=&quot;line-height: 1.2; margin-top: 12pt; margin-bottom: 12pt;&quot; dir=&quot;ltr&quot;&gt;&lt;font style=&quot;font-size: 12px;&quot;&gt;&lt;span style=&quot;font-family: Arial, sans-serif; color: rgb(0, 0, 0); background-color: transparent; font-weight: 400; font-style: normal; font-variant: normal; text-decoration: none; vertical-align: baseline;&quot;&gt;The police eventually arrive, but the killer remains at large, and the hunt for them continues.&lt;/span&gt;&lt;/font&gt;&lt;/p&gt;&lt;div&gt;&lt;br&gt;&lt;/div&gt;&lt;br&gt;&lt;div&gt;&lt;br&gt;&lt;/div&gt;&lt;div&gt;&lt;br&gt;&lt;/div&gt;" style="whiteSpace=wrap;html=1;rounded=0;fillColor=#dae8fc;strokeColor=#6c8ebf;" parent="1" vertex="1">
          <mxGeometry x="4110" y="2240" width="300" height="500" as="geometry" />
        </mxCell>
        <mxCell id="w3264zR7rGeF_oMtsxfC-117" value="Choice D1.2.2.1.1.2.2&lt;div&gt;//&#39;&#39; &quot;// You equip yourself with a letter opener, and your neighbor opts for the &lt;br&gt;heaviest book they could find. They position themselves by the door.//&quot;&#39;&#39;//&lt;/div&gt;&lt;div&gt;&lt;br&gt;&lt;/div&gt;&lt;p&gt;&quot;When the killer finally breaches the room, your neighbor strikes them forcefully over the head with the book. The impact leaves the killer disoriented, allowing you to thrust the letter opener straight into their heart. The killer collapses lifelessly to the floor.&lt;/p&gt;&lt;p&gt;Your neighbor gently takes the letter opener from your trembling hands, and together, you manage to escape the room. They close what remains of the study room door behind them.&lt;/p&gt;&lt;p&gt;Finally, your neighbor calls the police, who swiftly arrive on the scene. &lt;br&gt;&lt;/p&gt;&lt;div&gt;&lt;br&gt;&lt;/div&gt;&lt;div&gt;&lt;br&gt;&lt;/div&gt;&lt;div&gt;&lt;br&gt;&lt;/div&gt;" style="whiteSpace=wrap;html=1;rounded=0;fillColor=#d5e8d4;strokeColor=#82b366;" parent="1" vertex="1">
          <mxGeometry x="4840" y="2370" width="350" height="380" as="geometry" />
        </mxCell>
        <mxCell id="w3264zR7rGeF_oMtsxfC-119" value="Choice D1.2.2.1.1.2.1&lt;div style=&quot;&quot;&gt;&lt;font style=&quot;font-size: 12px;&quot;&gt;//&#39;&#39; &quot;// &lt;br&gt;&lt;/font&gt;&lt;p id=&quot;docs-internal-guid-5490282e-7fff-ac12-b905-60a16ed1e724&quot; style=&quot;line-height:1.2;margin-top:0pt;margin-bottom:0pt;&quot; dir=&quot;ltr&quot;&gt;&lt;font style=&quot;font-size: 12px;&quot;&gt;You start to doubt if you&#39;re strong enough to face the killer. You decide that going for the window is your best option. Your neighbor should go first, as he can assist you in getting&lt;/font&gt;&lt;/p&gt;&lt;p style=&quot;line-height:1.2;margin-top:0pt;margin-bottom:0pt;&quot; dir=&quot;ltr&quot;&gt;&lt;font style=&quot;font-size: 12px;&quot;&gt;&lt;span style=&quot;font-family: Arial, sans-serif; color: rgb(0, 0, 0); background-color: transparent; font-weight: 400; font-style: normal; font-variant: normal; text-decoration: none; vertical-align: baseline;&quot;&gt;outside.&lt;/span&gt;&lt;/font&gt;&lt;/p&gt;&lt;font style=&quot;font-size: 12px;&quot;&gt;//&quot;&#39;&#39;//&lt;/font&gt;&lt;/div&gt;&lt;div&gt;&lt;br&gt;&lt;/div&gt;&lt;p&gt;Your neighbor goes first, managing to squeeze through the small window, although it&#39;s a tight fit. He reaches out to help you.&lt;/p&gt;&lt;p&gt;However, just as you&#39;re about to reach safety, the killer bursts into the room, seizes your legs, and forcibly drags you out of the window. You land face-down on the ground, utterly defenseless, as the killer drives the knife into your spine.&lt;/p&gt;&lt;p&gt;Meanwhile, your neighbor rushes to the back, grabs a kitchen knife from the counter, and confronts the killer. In a desperate struggle, he manages to overpower and kill the killer.&lt;/p&gt;&lt;p&gt;Tragically, you didn&#39;t survive that fateful night, but neither did the relentless killer.&lt;/p&gt;&lt;div&gt;&lt;br&gt;&lt;/div&gt;&lt;div&gt;&lt;br&gt;&lt;/div&gt;" style="whiteSpace=wrap;html=1;rounded=0;fillColor=#f8cecc;strokeColor=#00CC00;strokeWidth=3;" parent="1" vertex="1">
          <mxGeometry x="4430" y="2358.13" width="400" height="391.87" as="geometry" />
        </mxCell>
        <mxCell id="w3264zR7rGeF_oMtsxfC-122" value="Choice D1.2.2.1.2.2.1.1/D1.2.2.1.2.3.1.1&lt;div&gt;//&#39;&#39; &quot;/You make an effort to reach your own house, aiming to get inside and retrieve your car keys//&quot;&#39;&#39;//&lt;/div&gt;&lt;div&gt;&lt;br&gt;&lt;/div&gt;&lt;div&gt;Adrenaline fuels your steps, despite the pain. You keep stumbling &lt;br&gt;towards your own home. Glancing back, you search for any sign of the &lt;br&gt;killer, but all you see is darkness.&lt;p&gt;You finally reach your front door.&quot;&lt;/p&gt;&lt;/div&gt;&lt;p&gt;Thankfully, your car keys are in the hallway. You stumble toward your car, only to discover that the tires have been slashed.&lt;/p&gt;&lt;p&gt;As you gaze up, your eyes lock onto something in the window. Squinting, you realize the killer is lurking right behind you.&lt;/p&gt;&lt;p&gt;In a desperate move, you manage to drop to the floor, narrowly evading the knife. Unable to run due to your injuries, you roll beneath your car.&lt;/p&gt;&lt;p&gt;The killer seizes you by the feet and mercilessly drags you out from under the car.&lt;/p&gt;&lt;p&gt;Unfortunately, you didn&#39;t make it.&lt;/p&gt;&lt;div&gt;&lt;br&gt;&lt;/div&gt;" style="whiteSpace=wrap;html=1;rounded=0;fillColor=#f8cecc;strokeColor=#b85450;" parent="1" vertex="1">
          <mxGeometry x="5210" y="2480" width="450" height="340" as="geometry" />
        </mxCell>
        <mxCell id="w3264zR7rGeF_oMtsxfC-297" style="edgeStyle=orthogonalEdgeStyle;rounded=0;orthogonalLoop=1;jettySize=auto;html=1;exitX=0.75;exitY=1;exitDx=0;exitDy=0;" parent="1" source="w3264zR7rGeF_oMtsxfC-124" target="w3264zR7rGeF_oMtsxfC-131" edge="1">
          <mxGeometry relative="1" as="geometry" />
        </mxCell>
        <mxCell id="w3264zR7rGeF_oMtsxfC-298" style="edgeStyle=orthogonalEdgeStyle;rounded=0;orthogonalLoop=1;jettySize=auto;html=1;exitX=0.25;exitY=1;exitDx=0;exitDy=0;" parent="1" source="w3264zR7rGeF_oMtsxfC-124" target="w3264zR7rGeF_oMtsxfC-130" edge="1">
          <mxGeometry relative="1" as="geometry" />
        </mxCell>
        <mxCell id="w3264zR7rGeF_oMtsxfC-124" value="Choice D1.2.2.1.2.2.2/D1.2.2.1.2.3.1.2&lt;div&gt;//&#39;&#39; &quot;/Exhausted and unable to continue stumbling around, you seek refuge in your neighbor&#39;s shed.//&quot;&#39;&#39;//&lt;/div&gt;&lt;div&gt;&lt;br&gt;&lt;/div&gt;&lt;div&gt;It&#39;s cold, dark and smells musty in this old shed. &lt;br&gt;&lt;/div&gt;&lt;div&gt;you try&amp;nbsp; to find a place to hide but it&#39;s hard not being able to see anything. &lt;br&gt;&lt;/div&gt;&lt;div&gt;You trip over some stick and hit your head on something hard.&lt;/div&gt;&lt;div&gt;Your still awake but can feel the throbbing pain in your head worsening and you feel blood dripping over your face. &lt;br&gt;&lt;/div&gt;&lt;div&gt;&lt;br&gt;&lt;/div&gt;" style="whiteSpace=wrap;html=1;rounded=0;fillColor=#ffe6cc;strokeColor=#d79b00;" parent="1" vertex="1">
          <mxGeometry x="5670" y="2520" width="530" height="240" as="geometry" />
        </mxCell>
        <mxCell id="w3264zR7rGeF_oMtsxfC-125" value="Choice D1.2.2.1.2.3&lt;div&gt;//&#39;&#39; &quot;//You opt for the safety of the coats on the coat rack, hiding yourself.//&quot;&#39;&#39;//&lt;/div&gt;&lt;div&gt;&lt;br&gt;&lt;/div&gt;&lt;div&gt;&quot;As the killer, their mask smeared with blood, draws near, they appear &lt;br&gt;unable to locate you. When they stand next to you, their back turned, a &lt;br&gt;surge of courage and primal instinct rushes through you. With all your &lt;br&gt;strength, you push the large grandfather clock onto the killer.&quot;&lt;/div&gt;&lt;div&gt;&lt;br&gt;&lt;/div&gt;&lt;div&gt;&lt;br&gt;&lt;/div&gt;" style="whiteSpace=wrap;html=1;rounded=0;" parent="1" vertex="1">
          <mxGeometry x="5915" y="1900" width="400" height="220" as="geometry" />
        </mxCell>
        <mxCell id="w3264zR7rGeF_oMtsxfC-127" style="edgeStyle=orthogonalEdgeStyle;rounded=0;orthogonalLoop=1;jettySize=auto;html=1;entryX=0.798;entryY=-0.027;entryDx=0;entryDy=0;entryPerimeter=0;" parent="1" source="w3264zR7rGeF_oMtsxfC-125" target="w3264zR7rGeF_oMtsxfC-94" edge="1">
          <mxGeometry relative="1" as="geometry" />
        </mxCell>
        <mxCell id="w3264zR7rGeF_oMtsxfC-128" style="edgeStyle=orthogonalEdgeStyle;rounded=0;orthogonalLoop=1;jettySize=auto;html=1;exitX=0;exitY=1;exitDx=0;exitDy=0;entryX=0.879;entryY=-0.01;entryDx=0;entryDy=0;entryPerimeter=0;" parent="1" source="w3264zR7rGeF_oMtsxfC-125" target="w3264zR7rGeF_oMtsxfC-96" edge="1">
          <mxGeometry relative="1" as="geometry" />
        </mxCell>
        <mxCell id="w3264zR7rGeF_oMtsxfC-130" value="Ending if there is no more health&lt;br&gt;&lt;div&gt;&lt;br&gt;&lt;/div&gt;&lt;div&gt;&lt;br&gt;&lt;/div&gt;You can only lose so much blood, and sadly, you didn&#39;t survive this &lt;br/&gt;night, not at the hand of the killer, but due to unlucky circumstances.&lt;div&gt;&lt;br&gt;&lt;/div&gt;" style="whiteSpace=wrap;html=1;rounded=0;fillColor=#f8cecc;strokeColor=#b85450;" parent="1" vertex="1">
          <mxGeometry x="5560" y="2830" width="310" height="240" as="geometry" />
        </mxCell>
        <mxCell id="w3264zR7rGeF_oMtsxfC-131" value="Ending if there is a bit of health left&lt;br&gt;&lt;div&gt;&lt;br&gt;&lt;/div&gt;&lt;div&gt;&lt;br&gt;&lt;/div&gt;&quot;You wake up, and it&#39;s daylight. You&#39;re still in a lot of pain and &lt;br/&gt;feeling drowsy. Sirens and people talking outside reach your ears. You &lt;br/&gt;attempt to scream, although it doesn&#39;t come out as a typical scream. &lt;br/&gt;Fortunately, they do hear youâ€”it&#39;s the police, and you&#39;re safe. However,&lt;br/&gt; the killer is nowhere to be found.&quot;" style="whiteSpace=wrap;html=1;rounded=0;fillColor=#d5e8d4;strokeColor=#82b366;" parent="1" vertex="1">
          <mxGeometry x="5880" y="2830" width="450" height="240" as="geometry" />
        </mxCell>
        <mxCell id="w3264zR7rGeF_oMtsxfC-317" style="edgeStyle=orthogonalEdgeStyle;rounded=0;orthogonalLoop=1;jettySize=auto;html=1;exitX=0.25;exitY=1;exitDx=0;exitDy=0;" parent="1" source="w3264zR7rGeF_oMtsxfC-135" target="w3264zR7rGeF_oMtsxfC-147" edge="1">
          <mxGeometry relative="1" as="geometry" />
        </mxCell>
        <mxCell id="w3264zR7rGeF_oMtsxfC-135" value="&lt;div&gt;Choice D1.1.1.2.2.1&lt;/div&gt;&lt;div&gt;//&#39;&#39;&quot;You hide in the bathroom, you know for sure the sound was coming from the other side of the hallway&quot; &#39;&#39;//&lt;/div&gt;&lt;div&gt;&lt;br&gt;&lt;/div&gt;You strangely find a sense of safety in this bathroom. It&#39;s clean and &lt;br&gt;cozy, and the idea of climbing out the window doesn&#39;t seem appealing, &lt;br&gt;given your previous misadventure. Taking a moment to catch your breath, &lt;br&gt;you enjoy this false sense of security." style="rounded=0;whiteSpace=wrap;html=1;" parent="1" vertex="1">
          <mxGeometry x="3440" y="1560" width="290" height="210" as="geometry" />
        </mxCell>
        <mxCell id="w3264zR7rGeF_oMtsxfC-136" value="&lt;div&gt;Choice D1.1.1.2.2.2&lt;/div&gt;&lt;div&gt;//&#39;&#39;&quot;You run downstairs, fearing that the person upstairs might be the killer.&#39;&#39;//&lt;/div&gt;&lt;div&gt;&lt;br&gt;&lt;/div&gt;You run straight into the killer, who is waiting for you at the bottom &lt;br&gt;of the stairs. The last thing you hear is your best friend calling your &lt;br&gt;name." style="rounded=0;whiteSpace=wrap;html=1;fillColor=#f8cecc;strokeColor=#b85450;" parent="1" vertex="1">
          <mxGeometry x="3836" y="1540" width="226" height="170" as="geometry" />
        </mxCell>
        <mxCell id="w3264zR7rGeF_oMtsxfC-137" value="&lt;div&gt;Choice D1.1.1.2.1.1&lt;/div&gt;&lt;div&gt;//&#39;&#39;You quickly move closer to check the injured person&#39;s identity and their&lt;br&gt; condition, your hands trembling as you search for any signs of life.//&lt;/div&gt;&lt;div&gt;&lt;br&gt;&lt;/div&gt;&lt;div&gt;The amount of blood should have been a dead giveaway, but it&#39;s too late&lt;br/&gt;now. Sadly, you&#39;re best friend&#39;s sister is no more. As you stand up, someone grabs you&lt;br/&gt;from behind, slamming you into the wall. The last thing you see is the killer, their&lt;br/&gt;clothes covered in blood and their terrifying mask staring back at you.&lt;/div&gt;&lt;div&gt;&lt;br&gt;&lt;/div&gt;&lt;div&gt;&lt;br&gt;&lt;/div&gt;&lt;div&gt;&lt;br&gt;&lt;/div&gt;&lt;div&gt;&lt;br&gt;&lt;/div&gt;" style="rounded=0;whiteSpace=wrap;html=1;fillColor=#f8cecc;strokeColor=#b85450;" parent="1" vertex="1">
          <mxGeometry x="2600" y="1577.5" width="310" height="262.5" as="geometry" />
        </mxCell>
        <mxCell id="w3264zR7rGeF_oMtsxfC-316" style="edgeStyle=orthogonalEdgeStyle;rounded=0;orthogonalLoop=1;jettySize=auto;html=1;exitX=0.25;exitY=1;exitDx=0;exitDy=0;" parent="1" source="w3264zR7rGeF_oMtsxfC-139" target="w3264zR7rGeF_oMtsxfC-147" edge="1">
          <mxGeometry relative="1" as="geometry" />
        </mxCell>
        <mxCell id="w3264zR7rGeF_oMtsxfC-139" value="&lt;div&gt;&lt;div&gt;Choice D1.1.1.2.1.2&lt;br&gt;&lt;/div&gt;&lt;/div&gt;&lt;div&gt;//&quot;You have a gut feeling that it might be a trap, so you quickly turn around and head &lt;br&gt;upstairs to the bathroom.&quot;//&lt;/div&gt;&lt;div&gt;&lt;br&gt;&lt;/div&gt;You strangely find a sense of safety in this bathroom. It&#39;s clean and &lt;br&gt;cozy, and the idea of climbing out the window doesn&#39;t seem appealing. Taking a moment to catch your breath, &lt;br&gt;you enjoy this false sense of security.&lt;div&gt;&lt;br&gt;&lt;/div&gt;&lt;div&gt;&lt;br&gt;&lt;/div&gt;&lt;div&gt;&lt;br&gt;&lt;/div&gt;&lt;div&gt;&lt;br&gt;&lt;/div&gt;" style="rounded=0;whiteSpace=wrap;html=1;" parent="1" vertex="1">
          <mxGeometry x="3040" y="1527.5" width="310" height="275" as="geometry" />
        </mxCell>
        <mxCell id="w3264zR7rGeF_oMtsxfC-318" style="edgeStyle=orthogonalEdgeStyle;rounded=0;orthogonalLoop=1;jettySize=auto;html=1;exitX=0;exitY=0.5;exitDx=0;exitDy=0;" parent="1" source="w3264zR7rGeF_oMtsxfC-147" target="w3264zR7rGeF_oMtsxfC-151" edge="1">
          <mxGeometry relative="1" as="geometry" />
        </mxCell>
        <mxCell id="w3264zR7rGeF_oMtsxfC-147" value="Choice D1.1.1.2.1.2.1/D.1.1.2.2.1.1&lt;div&gt;//&quot;Continue relishing this moment while quietly concealing yourself in the bathtub.//&lt;/div&gt;&lt;div&gt;&lt;br&gt;&lt;/div&gt;&lt;div class=&quot;flex flex-grow flex-col gap-3 max-w-full&quot;&gt;&lt;div class=&quot;min-h-[20px] flex flex-col items-start gap-3 whitespace-pre-wrap break-words overflow-x-auto&quot;&gt;&lt;div class=&quot;markdown prose w-full break-words dark:prose-invert light&quot;&gt;&lt;p&gt;&quot;You are overcome with exhaustion, your eyelids growing heavier by the moment. &lt;br&gt;&lt;/p&gt;&lt;p&gt;knowledge of the danger lurking in the house can&#39;t keep you awake.&quot;&lt;/p&gt;&lt;p&gt;&lt;br&gt;&lt;/p&gt;&lt;/div&gt;&lt;/div&gt;&lt;/div&gt;&lt;div&gt;&lt;br&gt;&lt;/div&gt;&lt;div&gt;&lt;br&gt;&lt;/div&gt;&lt;div&gt;&lt;br&gt;&lt;/div&gt;&lt;div&gt;&lt;br&gt;&lt;/div&gt;&lt;div&gt;&lt;br&gt;&lt;/div&gt;&lt;div&gt;&lt;br&gt;&lt;/div&gt;&lt;div&gt;&lt;br&gt;&lt;/div&gt;" style="rounded=0;whiteSpace=wrap;html=1;" parent="1" vertex="1">
          <mxGeometry x="3044.5" y="1875" width="245.5" height="295" as="geometry" />
        </mxCell>
        <mxCell id="w3264zR7rGeF_oMtsxfC-148" value="&lt;div&gt;Choice D1.1.1.2.1.2.2/D1.1.2.2.1.2&lt;/div&gt;&lt;div&gt;&quot;You&#39;re convinced it&#39;s safe, so you open the door to take a cautious peek through..&quot;&lt;/div&gt;&lt;div&gt;&lt;br&gt;&lt;/div&gt;&lt;div&gt;Eerie sounds drift from the lower floor, and though the hallway seems &lt;br&gt;vacant, your heart pounds with fear and indecision. What will be your &lt;br&gt;next move?&lt;/div&gt;&lt;div&gt;&lt;br&gt;&lt;/div&gt;&lt;div&gt;&lt;br&gt;&lt;/div&gt;&lt;div&gt;&lt;br&gt;&lt;/div&gt;&lt;div&gt;&lt;br&gt;&lt;/div&gt;" style="rounded=0;whiteSpace=wrap;html=1;" parent="1" vertex="1">
          <mxGeometry x="3440" y="1895" width="204" height="220" as="geometry" />
        </mxCell>
        <mxCell id="w3264zR7rGeF_oMtsxfC-151" value="&lt;br&gt;&lt;div&gt;&lt;br&gt;&lt;/div&gt;&lt;div&gt;NOT REALLY A CHOICE&lt;br&gt;&lt;/div&gt;&lt;div&gt;//Surrender to the sleep//&lt;/div&gt;&lt;div&gt;&lt;br&gt;&lt;/div&gt;&lt;p&gt;As you succumb to the weight of exhaustion, you choose to keep dreaming. The lines between reality and dream blur, and you find yourself in a hazy, surreal world. You walk through the memories of your past, revisiting moments with family and friends.&lt;/p&gt;&lt;p&gt;The dreamworld envelops you, and you begin to wonder if this is the afterlife or just a dream. Time loses its meaning, and you drift through your memories, trapped in a liminal space where life and death are indistinguishable.&quot;&lt;/p&gt;&lt;p&gt;&lt;br&gt;&lt;/p&gt;&lt;p&gt;&lt;b&gt;&lt;u&gt;Loop back to beginning?&lt;/u&gt;&lt;/b&gt;&lt;br&gt;&lt;/p&gt;&lt;div&gt;&lt;br&gt;&lt;/div&gt;&lt;div&gt;&lt;br&gt;&lt;/div&gt;&lt;div&gt;&lt;br&gt;&lt;/div&gt;&lt;div&gt;&lt;br&gt;&lt;/div&gt;&lt;div&gt;&lt;br&gt;&lt;/div&gt;&lt;div&gt;&lt;br&gt;&lt;/div&gt;" style="rounded=0;whiteSpace=wrap;html=1;fillColor=#e1d5e7;strokeColor=#9673a6;" parent="1" vertex="1">
          <mxGeometry x="2680" y="1876" width="310" height="340" as="geometry" />
        </mxCell>
        <mxCell id="w3264zR7rGeF_oMtsxfC-337" style="edgeStyle=orthogonalEdgeStyle;rounded=0;orthogonalLoop=1;jettySize=auto;html=1;exitX=0.25;exitY=1;exitDx=0;exitDy=0;entryX=0.75;entryY=0;entryDx=0;entryDy=0;" parent="1" source="w3264zR7rGeF_oMtsxfC-160" target="w3264zR7rGeF_oMtsxfC-176" edge="1">
          <mxGeometry relative="1" as="geometry" />
        </mxCell>
        <mxCell id="w3264zR7rGeF_oMtsxfC-339" style="edgeStyle=orthogonalEdgeStyle;rounded=0;orthogonalLoop=1;jettySize=auto;html=1;" parent="1" source="w3264zR7rGeF_oMtsxfC-160" target="w3264zR7rGeF_oMtsxfC-174" edge="1">
          <mxGeometry relative="1" as="geometry" />
        </mxCell>
        <mxCell id="w3264zR7rGeF_oMtsxfC-160" value="&lt;div&gt;&lt;br&gt;&lt;/div&gt;&lt;div&gt;&lt;br&gt;&lt;/div&gt;&lt;div&gt;&lt;br&gt;&lt;/div&gt;&lt;div&gt;&lt;br&gt;&lt;/div&gt;&lt;div&gt;Choice D1.1.1.2.1.2.2.1/D1.1.2.2.1.2.1&lt;/div&gt;&lt;div&gt;//&quot;You cautiously crawl toward the stairs to investigate the source of the noises//&lt;/div&gt;&lt;div&gt;&lt;br&gt;&lt;/div&gt;&lt;div class=&quot;flex flex-grow flex-col gap-3 max-w-full&quot;&gt;&lt;div class=&quot;min-h-[20px] flex flex-col items-start gap-3 whitespace-pre-wrap break-words overflow-x-auto&quot;&gt;&lt;div class=&quot;markdown prose w-full break-words dark:prose-invert light&quot;&gt;As you peer down the dimly lit staircase, your heart races, and a shiver&lt;br/&gt; runs down your spine. There&#39;s a mysterious figure in the hallway, but &lt;br/&gt;the darkness conceals their identity. You&#39;re left with a nagging sense &lt;br/&gt;of unease and dread as you try to make out who or what is lurking below.&lt;/div&gt;&lt;div class=&quot;markdown prose w-full break-words dark:prose-invert light&quot;&gt;&lt;br&gt;&lt;/div&gt;&lt;/div&gt;&lt;/div&gt;&lt;div&gt;&lt;br&gt;&lt;/div&gt;&lt;div&gt;&lt;br&gt;&lt;/div&gt;&lt;div&gt;&lt;br&gt;&lt;/div&gt;&lt;div&gt;&lt;br&gt;&lt;/div&gt;&lt;div&gt;&lt;br&gt;&lt;/div&gt;&lt;div&gt;&lt;br&gt;&lt;/div&gt;&lt;div&gt;&lt;br&gt;&lt;/div&gt;" style="rounded=0;whiteSpace=wrap;html=1;" parent="1" vertex="1">
          <mxGeometry x="3160" y="2195" width="280" height="235" as="geometry" />
        </mxCell>
        <mxCell id="w3264zR7rGeF_oMtsxfC-344" style="edgeStyle=orthogonalEdgeStyle;rounded=0;orthogonalLoop=1;jettySize=auto;html=1;exitX=0.5;exitY=1;exitDx=0;exitDy=0;" parent="1" source="w3264zR7rGeF_oMtsxfC-162" target="w3264zR7rGeF_oMtsxfC-164" edge="1">
          <mxGeometry relative="1" as="geometry" />
        </mxCell>
        <mxCell id="w3264zR7rGeF_oMtsxfC-345" style="edgeStyle=orthogonalEdgeStyle;rounded=0;orthogonalLoop=1;jettySize=auto;html=1;exitX=0;exitY=1;exitDx=0;exitDy=0;entryX=0.75;entryY=0;entryDx=0;entryDy=0;" parent="1" source="w3264zR7rGeF_oMtsxfC-162" target="w3264zR7rGeF_oMtsxfC-165" edge="1">
          <mxGeometry relative="1" as="geometry" />
        </mxCell>
        <mxCell id="w3264zR7rGeF_oMtsxfC-162" value="&lt;div&gt;Choice D1.1.1.2.1.2.2.2/D1.1.2.2.1.2.2&lt;/div&gt;&lt;div&gt;//You stealthily make your way to your best friend&#39;s bedroom. You need to find out if they are still alive.//&lt;/div&gt;&lt;div&gt;&lt;br&gt;&lt;/div&gt;&lt;div class=&quot;flex flex-grow flex-col gap-3 max-w-full&quot;&gt;&lt;div class=&quot;min-h-[20px] flex flex-col items-start gap-3 whitespace-pre-wrap break-words overflow-x-auto&quot;&gt;You gently open the door and step into the room. You attempt to close &lt;br&gt;the door silently, but you notice some movement behind the bed.&lt;/div&gt;&lt;div class=&quot;min-h-[20px] flex flex-col items-start gap-3 whitespace-pre-wrap break-words overflow-x-auto&quot;&gt;As you look around the room you see some bloody footsteps on the carpet.&lt;br&gt;&lt;div class=&quot;markdown prose w-full break-words dark:prose-invert light&quot;&gt;&lt;br&gt;&lt;/div&gt;&lt;/div&gt;&lt;/div&gt;&lt;div&gt;&lt;br&gt;&lt;/div&gt;&lt;div&gt;&lt;br&gt;&lt;/div&gt;&lt;div&gt;&lt;br&gt;&lt;/div&gt;&lt;div&gt;&lt;br&gt;&lt;/div&gt;&lt;div&gt;&lt;br&gt;&lt;/div&gt;&lt;div&gt;&lt;br&gt;&lt;/div&gt;&lt;div&gt;&lt;br&gt;&lt;/div&gt;" style="rounded=0;whiteSpace=wrap;html=1;" parent="1" vertex="1">
          <mxGeometry x="3460" y="2195" width="340" height="300" as="geometry" />
        </mxCell>
        <mxCell id="w3264zR7rGeF_oMtsxfC-163" style="edgeStyle=orthogonalEdgeStyle;rounded=0;orthogonalLoop=1;jettySize=auto;html=1;exitX=0.25;exitY=1;exitDx=0;exitDy=0;entryX=0.62;entryY=0.002;entryDx=0;entryDy=0;entryPerimeter=0;" parent="1" source="w3264zR7rGeF_oMtsxfC-148" target="w3264zR7rGeF_oMtsxfC-162" edge="1">
          <mxGeometry relative="1" as="geometry" />
        </mxCell>
        <mxCell id="w3264zR7rGeF_oMtsxfC-349" style="edgeStyle=orthogonalEdgeStyle;rounded=0;orthogonalLoop=1;jettySize=auto;html=1;exitX=0.75;exitY=1;exitDx=0;exitDy=0;entryX=0.5;entryY=0;entryDx=0;entryDy=0;" parent="1" source="w3264zR7rGeF_oMtsxfC-164" target="w3264zR7rGeF_oMtsxfC-167" edge="1">
          <mxGeometry relative="1" as="geometry" />
        </mxCell>
        <mxCell id="w3264zR7rGeF_oMtsxfC-164" value="&lt;div&gt;&lt;div&gt;&lt;br&gt;&lt;/div&gt;&lt;div&gt;Choice D1.1.1.2.1.2.2.2.2/D1.1.2.2.1.2.2.2&lt;/div&gt;&lt;div&gt;Choice D1.1.1.2.1.2.2.1.2.2/D1.1.2.2.1.2.1.2.2&lt;/div&gt;&lt;/div&gt;&lt;div&gt;//It&#39;s probably just your friend hiding there, not the killer, right? You &lt;br/&gt;move closer and whisper your best friend&#39;s name, hoping for a response..//&lt;/div&gt;&lt;div&gt;&lt;br&gt;&lt;/div&gt;Relieved that it&#39;s your best friend, you join them behind the bed. They &lt;br/&gt;signal for you to stay silent and show you their phone, indicating that &lt;br/&gt;they called the police 8 minutes ago. You huddle together, hoping that &lt;br/&gt;help will arrive soon.&lt;div class=&quot;min-h-[20px] flex flex-col items-start gap-3 whitespace-pre-wrap break-words overflow-x-auto&quot;&gt;&lt;br&gt;&lt;div class=&quot;markdown prose w-full break-words dark:prose-invert light&quot;&gt;&lt;br&gt;&lt;/div&gt;&lt;/div&gt;&lt;div&gt;&lt;br&gt;&lt;/div&gt;&lt;div&gt;&lt;br&gt;&lt;/div&gt;&lt;div&gt;&lt;br&gt;&lt;/div&gt;&lt;div&gt;&lt;br&gt;&lt;/div&gt;&lt;div&gt;&lt;br&gt;&lt;/div&gt;&lt;div&gt;&lt;br&gt;&lt;/div&gt;&lt;div&gt;&lt;br&gt;&lt;/div&gt;" style="rounded=0;whiteSpace=wrap;html=1;" parent="1" vertex="1">
          <mxGeometry x="3470" y="2600" width="320" height="320" as="geometry" />
        </mxCell>
        <mxCell id="w3264zR7rGeF_oMtsxfC-165" value="&lt;div&gt;&lt;br&gt;&lt;/div&gt;&lt;div&gt;&lt;br&gt;&lt;/div&gt;&lt;div&gt;&lt;br&gt;&lt;/div&gt;&lt;div&gt;&lt;br&gt;&lt;/div&gt;&lt;div&gt;&lt;br&gt;&lt;/div&gt;&lt;div&gt;&lt;br&gt;&lt;/div&gt;&lt;div&gt;&lt;br&gt;&lt;/div&gt;&lt;div&gt;&lt;br&gt;&lt;/div&gt;&lt;div&gt;&lt;br&gt;&lt;/div&gt;&lt;div&gt;&lt;br&gt;&lt;/div&gt;&lt;div&gt;&lt;br&gt;&lt;/div&gt;&lt;div&gt;Choice D1.1.1.2.1.2.2.2.1/D1.1.2.2.1.2.2.1&lt;/div&gt;&lt;div&gt;Choice D1.1.1.2.1.2.2.1.2.1/D1.1.2.2.1.2.1.2.1&lt;/div&gt;&lt;div&gt;//A trap, perhaps? You arm yourself with the conveniently placed &lt;br&gt;baseball bat beside you and take a swing at whatever is behind the bed.//&lt;/div&gt;&lt;div&gt;&lt;br&gt;&lt;/div&gt;&lt;div&gt;You hit the figure on the head. They scream, rolling on the ground and grabbing your foot, which causes you both to tumble to the floor. A sharp pain pierces through your foot, and when you look, you find a pair of scissors lodged in the top of your foot. In agony, you scream, &#39;STOP, IT&#39;S ME!&#39;&lt;/div&gt;&lt;p&gt;Your friend calms down.&lt;/p&gt;&lt;p&gt;Suddenly, the killer bursts into the room. With both of you helpless, the killer takes their sweet time, savoring the torture before ending your lives.&quot;&lt;/p&gt;&lt;div class=&quot;flex flex-grow flex-col gap-3 max-w-full&quot;&gt;&lt;div class=&quot;min-h-[20px] flex flex-col items-start gap-3 whitespace-pre-wrap break-words overflow-x-auto&quot;&gt;&lt;div class=&quot;markdown prose w-full break-words dark:prose-invert light&quot;&gt;&amp;nbsp;&lt;br&gt;&lt;/div&gt;&lt;div class=&quot;markdown prose w-full break-words dark:prose-invert light&quot;&gt;&lt;br&gt;&lt;/div&gt;&lt;/div&gt;&lt;/div&gt;&lt;div&gt;&lt;br&gt;&lt;/div&gt;&lt;div&gt;&lt;br&gt;&lt;/div&gt;&lt;div&gt;&lt;br&gt;&lt;/div&gt;&lt;div&gt;&lt;br&gt;&lt;/div&gt;&lt;div&gt;&lt;br&gt;&lt;/div&gt;&lt;div&gt;&lt;br&gt;&lt;/div&gt;&lt;div&gt;&lt;br&gt;&lt;/div&gt;" style="rounded=0;whiteSpace=wrap;html=1;fillColor=#f8cecc;strokeColor=#b85450;" parent="1" vertex="1">
          <mxGeometry x="2970" y="2680" width="430" height="240" as="geometry" />
        </mxCell>
        <mxCell id="w3264zR7rGeF_oMtsxfC-166" value="&lt;div&gt;&lt;br&gt;&lt;/div&gt;&lt;div&gt;&lt;br&gt;&lt;/div&gt;&lt;div&gt;&lt;br&gt;&lt;/div&gt;&lt;div&gt;&lt;br&gt;&lt;/div&gt;&lt;div&gt;&lt;br&gt;&lt;/div&gt;&lt;div&gt;&lt;br&gt;&lt;/div&gt;&lt;div&gt;&lt;div&gt;Choice D1.1.1.2.1.2.2.2.2.1/D1.1.2.2.1.2.2.2.1&lt;/div&gt;&lt;div&gt;Choice D1.1.1.2.1.2.2.1.2.2.1/D1.1.2.2.1.2.1.2.2.1&lt;/div&gt;&lt;/div&gt;&lt;div&gt;//You decide to wait it out together behind the bed//&lt;/div&gt;&lt;div&gt;&lt;br&gt;&lt;/div&gt;&lt;p&gt;You can hear footsteps coming up the stairs. You both doubt if you made the right choice to stay where you are. When the door flies open, it&#39;s the police. They say there is no one in the house anymore. They only found a dead body in the kitchen, no weapons, nothing.&lt;/p&gt;&lt;p&gt;As you and your friend walk with the police, you can&#39;t help but wonder &lt;br&gt;if you imagined that shiny, red object under the bed. Maybe it&#39;s just &lt;br&gt;the exhaustion playing tricks on your mind&lt;/p&gt;&lt;div class=&quot;markdown prose w-full break-words dark:prose-invert light&quot;&gt;&lt;br&gt;&lt;/div&gt;&lt;div&gt;&lt;br&gt;&lt;/div&gt;&lt;div&gt;&lt;br&gt;&lt;/div&gt;&lt;div&gt;&lt;br&gt;&lt;/div&gt;&lt;div&gt;&lt;br&gt;&lt;/div&gt;&lt;div&gt;&lt;br&gt;&lt;/div&gt;&lt;div&gt;&lt;br&gt;&lt;/div&gt;&lt;div&gt;&lt;br&gt;&lt;/div&gt;" style="rounded=0;whiteSpace=wrap;html=1;fillColor=#d5e8d4;strokeColor=#82b366;" parent="1" vertex="1">
          <mxGeometry x="3140" y="2960" width="481.5" height="210" as="geometry" />
        </mxCell>
        <mxCell id="w3264zR7rGeF_oMtsxfC-167" value="&lt;div&gt;&lt;br&gt;&lt;/div&gt;&lt;div&gt;&lt;br&gt;&lt;/div&gt;&lt;div&gt;&lt;br&gt;&lt;/div&gt;&lt;div&gt;&lt;br&gt;&lt;/div&gt;&lt;div&gt;&lt;br&gt;&lt;/div&gt;&lt;div&gt;&lt;br&gt;&lt;/div&gt;&lt;div&gt;&lt;br&gt;&lt;/div&gt;&lt;div&gt;&lt;br&gt;&lt;/div&gt;&lt;div&gt;&lt;br&gt;&lt;/div&gt;&lt;div&gt;&lt;div&gt;Choice D1.1.1.2.1.2.2.2.2.2/D1.1.2.2.1.2.2.2.2&lt;/div&gt;&lt;div&gt;Choice D1.1.1.2.1.2.2.1.2.2.2/D1.1.2.2.1.2.1.2.2.2&lt;/div&gt;&lt;/div&gt;&lt;div&gt;//You convince your friend to make a run for it, can you even trust your best friend?//&lt;/div&gt;&lt;p&gt;&quot;You don&#39;t fully trust your friend, so you let them go first while keeping a close eye on them. They open the door, and to your horror, the killer is right behind it. You can&#39;t believe you didn&#39;t hear a thing!&lt;/p&gt;&lt;p&gt;In a chaotic and deadly twist of fate, your best friend is pushed toward you and stumbles, taking you down with them. As you both lay on the floor, you&#39;re brutally stabbed multiple times. It&#39;s a horrific end for both of you.&quot;&lt;/p&gt;&lt;div class=&quot;min-h-[20px] flex flex-col items-start gap-3 whitespace-pre-wrap break-words overflow-x-auto&quot;&gt;&lt;br&gt;&lt;div class=&quot;markdown prose w-full break-words dark:prose-invert light&quot;&gt;&lt;br&gt;&lt;/div&gt;&lt;/div&gt;&lt;div&gt;&lt;br&gt;&lt;/div&gt;&lt;div&gt;&lt;br&gt;&lt;/div&gt;&lt;div&gt;&lt;br&gt;&lt;/div&gt;&lt;div&gt;&lt;br&gt;&lt;/div&gt;&lt;div&gt;&lt;br&gt;&lt;/div&gt;&lt;div&gt;&lt;br&gt;&lt;/div&gt;&lt;div&gt;&lt;br&gt;&lt;/div&gt;" style="rounded=0;whiteSpace=wrap;html=1;fillColor=#f8cecc;strokeColor=#b85450;" parent="1" vertex="1">
          <mxGeometry x="3645" y="2960" width="440" height="210" as="geometry" />
        </mxCell>
        <mxCell id="w3264zR7rGeF_oMtsxfC-346" style="edgeStyle=orthogonalEdgeStyle;rounded=0;orthogonalLoop=1;jettySize=auto;html=1;exitX=1;exitY=0.75;exitDx=0;exitDy=0;entryX=0.75;entryY=0;entryDx=0;entryDy=0;" parent="1" source="w3264zR7rGeF_oMtsxfC-176" target="w3264zR7rGeF_oMtsxfC-165" edge="1">
          <mxGeometry relative="1" as="geometry" />
        </mxCell>
        <mxCell id="w3264zR7rGeF_oMtsxfC-347" style="edgeStyle=orthogonalEdgeStyle;rounded=0;orthogonalLoop=1;jettySize=auto;html=1;exitX=1;exitY=0.5;exitDx=0;exitDy=0;entryX=0.5;entryY=0;entryDx=0;entryDy=0;" parent="1" source="w3264zR7rGeF_oMtsxfC-176" target="w3264zR7rGeF_oMtsxfC-164" edge="1">
          <mxGeometry relative="1" as="geometry" />
        </mxCell>
        <mxCell id="w3264zR7rGeF_oMtsxfC-176" value="&lt;div&gt;&lt;br&gt;&lt;/div&gt;&lt;div&gt;&lt;br&gt;&lt;/div&gt;&lt;div&gt;&lt;br&gt;&lt;/div&gt;&lt;div&gt;&lt;br&gt;&lt;/div&gt;&lt;div&gt;&lt;br&gt;&lt;/div&gt;&lt;div&gt;&lt;br&gt;&lt;/div&gt;&lt;div&gt;&lt;br&gt;&lt;/div&gt;&lt;div&gt;&lt;div&gt;Choice D1.1.1.2.1.2.2.1.2/D1.1.2.2.1.2.1.2&lt;/div&gt;&lt;/div&gt;&lt;div&gt;//You sense trouble and opt to crawl to your best friend&#39;s room..//&lt;/div&gt;&lt;div&gt;&lt;br&gt;&lt;/div&gt;&lt;div&gt;&lt;div class=&quot;min-h-[20px] flex flex-col items-start gap-3 whitespace-pre-wrap break-words overflow-x-auto&quot;&gt;You gently open the door and step into the room. You attempt to close &lt;br&gt;the door silently, but you notice some movement behind the bed.&lt;/div&gt;As you look around the room you see some bloody footsteps on the carpet.&lt;/div&gt;&lt;div&gt;&lt;br&gt;&lt;/div&gt;&lt;br&gt;&lt;div&gt;&lt;br&gt;&lt;/div&gt;&lt;div&gt;&lt;br&gt;&lt;/div&gt;&lt;div&gt;&lt;br&gt;&lt;/div&gt;&lt;div&gt;&lt;br&gt;&lt;/div&gt;&lt;div&gt;&lt;br&gt;&lt;/div&gt;&lt;div&gt;&lt;br&gt;&lt;/div&gt;" style="rounded=0;whiteSpace=wrap;html=1;" parent="1" vertex="1">
          <mxGeometry x="3000" y="2455" width="240" height="210" as="geometry" />
        </mxCell>
        <mxCell id="w3264zR7rGeF_oMtsxfC-181" value="&lt;div&gt;&lt;br&gt;&lt;/div&gt;&lt;div&gt;&lt;div&gt;Path pick up the phone&lt;/div&gt;&lt;div&gt;bad ending&lt;br&gt;&lt;/div&gt;&lt;/div&gt;&lt;div&gt;Choice A.2&lt;/div&gt;&lt;div&gt;&lt;br&gt;&lt;/div&gt;&lt;div&gt;//&#39;&#39; &quot;/You find solace in the darkness, confident and entertained by your TikTok videos on your phone.&quot;//&quot;&#39;&#39;//&lt;/div&gt;&lt;div&gt;&lt;br&gt;&lt;/div&gt;&lt;div&gt;Completely entranced by your phone, you&#39;re oblivious to the masked &lt;br&gt;killer who sneaks in. Suddenly, they drive their knife through the top &lt;br&gt;of your head, ending your Halloween night in a gruesome manner.&lt;/div&gt;" style="rounded=0;whiteSpace=wrap;html=1;fillColor=#f8cecc;strokeColor=#b85450;" parent="1" vertex="1">
          <mxGeometry x="-320" y="580" width="260" height="220" as="geometry" />
        </mxCell>
        <mxCell id="w3264zR7rGeF_oMtsxfC-182" style="edgeStyle=orthogonalEdgeStyle;rounded=0;orthogonalLoop=1;jettySize=auto;html=1;entryX=0.665;entryY=-0.001;entryDx=0;entryDy=0;entryPerimeter=0;" parent="1" source="w3264zR7rGeF_oMtsxfC-10" target="w3264zR7rGeF_oMtsxfC-181" edge="1">
          <mxGeometry relative="1" as="geometry" />
        </mxCell>
        <mxCell id="w3264zR7rGeF_oMtsxfC-254" style="edgeStyle=orthogonalEdgeStyle;rounded=0;orthogonalLoop=1;jettySize=auto;html=1;exitX=0;exitY=0.25;exitDx=0;exitDy=0;entryX=0.5;entryY=0;entryDx=0;entryDy=0;" parent="1" source="w3264zR7rGeF_oMtsxfC-184" target="w3264zR7rGeF_oMtsxfC-189" edge="1">
          <mxGeometry relative="1" as="geometry" />
        </mxCell>
        <mxCell id="w3264zR7rGeF_oMtsxfC-255" style="edgeStyle=orthogonalEdgeStyle;rounded=0;orthogonalLoop=1;jettySize=auto;html=1;exitX=0;exitY=0.75;exitDx=0;exitDy=0;entryX=0.25;entryY=0;entryDx=0;entryDy=0;" parent="1" source="w3264zR7rGeF_oMtsxfC-184" target="w3264zR7rGeF_oMtsxfC-191" edge="1">
          <mxGeometry relative="1" as="geometry" />
        </mxCell>
        <mxCell id="w3264zR7rGeF_oMtsxfC-184" value="&lt;div&gt;Choice B1.1&lt;br&gt;&lt;/div&gt;&lt;div&gt;//&#39;&#39;you turn on the hallway light&#39;&#39;//&lt;/div&gt;&lt;div&gt;&lt;br&gt;&lt;/div&gt;When you turn on the light, you see something scurrying away in the &lt;br&gt;kitchen. You couldn&#39;t make out what it was. Your focus immediately &lt;br&gt;shifts as faint noises come from upstairs." style="rounded=0;whiteSpace=wrap;html=1;" parent="1" vertex="1">
          <mxGeometry x="887.4" y="744" width="206" height="180" as="geometry" />
        </mxCell>
        <mxCell id="w3264zR7rGeF_oMtsxfC-210" style="edgeStyle=orthogonalEdgeStyle;rounded=0;orthogonalLoop=1;jettySize=auto;html=1;exitX=1;exitY=0.75;exitDx=0;exitDy=0;entryX=0.25;entryY=0;entryDx=0;entryDy=0;" parent="1" source="w3264zR7rGeF_oMtsxfC-185" target="w3264zR7rGeF_oMtsxfC-209" edge="1">
          <mxGeometry relative="1" as="geometry" />
        </mxCell>
        <mxCell id="w3264zR7rGeF_oMtsxfC-261" style="edgeStyle=orthogonalEdgeStyle;rounded=0;orthogonalLoop=1;jettySize=auto;html=1;exitX=0;exitY=1;exitDx=0;exitDy=0;entryX=0.5;entryY=0;entryDx=0;entryDy=0;" parent="1" source="w3264zR7rGeF_oMtsxfC-185" target="w3264zR7rGeF_oMtsxfC-208" edge="1">
          <mxGeometry relative="1" as="geometry" />
        </mxCell>
        <mxCell id="w3264zR7rGeF_oMtsxfC-185" value="&lt;div&gt;Choice B1.2&lt;br&gt;&lt;/div&gt;&lt;div&gt;//&#39;&#39;you continue in the dark, softly calling your best friends name&#39;&#39;//&lt;/div&gt;&lt;div&gt;&lt;br&gt;&lt;/div&gt;&lt;div&gt;you hear a muffled response from upstairs.&amp;nbsp; You move carefully towards the sound, it seems to be coming from your friends room.&lt;/div&gt;" style="rounded=0;whiteSpace=wrap;html=1;" parent="1" vertex="1">
          <mxGeometry x="1340" y="855" width="250" height="190" as="geometry" />
        </mxCell>
        <mxCell id="w3264zR7rGeF_oMtsxfC-187" style="edgeStyle=orthogonalEdgeStyle;rounded=0;orthogonalLoop=1;jettySize=auto;html=1;entryX=0.391;entryY=-0.011;entryDx=0;entryDy=0;entryPerimeter=0;" parent="1" target="w3264zR7rGeF_oMtsxfC-184" edge="1">
          <mxGeometry relative="1" as="geometry">
            <mxPoint x="1130" y="629" as="sourcePoint" />
          </mxGeometry>
        </mxCell>
        <mxCell id="w3264zR7rGeF_oMtsxfC-188" style="edgeStyle=orthogonalEdgeStyle;rounded=0;orthogonalLoop=1;jettySize=auto;html=1;exitX=0.75;exitY=1;exitDx=0;exitDy=0;entryX=0.221;entryY=-0.011;entryDx=0;entryDy=0;entryPerimeter=0;" parent="1" source="w3264zR7rGeF_oMtsxfC-23" target="w3264zR7rGeF_oMtsxfC-185" edge="1">
          <mxGeometry relative="1" as="geometry" />
        </mxCell>
        <mxCell id="w3264zR7rGeF_oMtsxfC-198" style="edgeStyle=orthogonalEdgeStyle;rounded=0;orthogonalLoop=1;jettySize=auto;html=1;exitX=0.5;exitY=1;exitDx=0;exitDy=0;" parent="1" target="w3264zR7rGeF_oMtsxfC-197" edge="1">
          <mxGeometry relative="1" as="geometry">
            <mxPoint x="-7" y="1170" as="sourcePoint" />
          </mxGeometry>
        </mxCell>
        <mxCell id="w3264zR7rGeF_oMtsxfC-189" value="&lt;div&gt;Choice B1.1.1&lt;br&gt;&lt;/div&gt;&lt;div&gt;//&#39;&#39;you decide to go investigate the noises from upstairs&#39;&#39;//&lt;/div&gt;&lt;div&gt;&lt;br&gt;&lt;/div&gt;Quietly and carefully, you &lt;br&gt;attempt to sneak up the stairs. Suddenly, you freeze as the sound of a &lt;br&gt;creaking door echoes down the upstairs hallway." style="rounded=0;whiteSpace=wrap;html=1;" parent="1" vertex="1">
          <mxGeometry x="-130" y="990" width="206" height="180" as="geometry" />
        </mxCell>
        <mxCell id="w3264zR7rGeF_oMtsxfC-257" style="edgeStyle=orthogonalEdgeStyle;rounded=0;orthogonalLoop=1;jettySize=auto;html=1;exitX=1;exitY=1;exitDx=0;exitDy=0;" parent="1" source="w3264zR7rGeF_oMtsxfC-191" edge="1">
          <mxGeometry relative="1" as="geometry">
            <mxPoint x="660" y="1220" as="targetPoint" />
          </mxGeometry>
        </mxCell>
        <mxCell id="w3264zR7rGeF_oMtsxfC-191" value="&lt;div&gt;Choice B1.1.2&lt;br&gt;&lt;/div&gt;&lt;div&gt;//&#39;&#39;you decide to go investigate whatever you may have seen in the kitchen&#39;&#39;//&lt;/div&gt;&lt;div&gt;&lt;br&gt;&lt;/div&gt;You sneak towards the kitchen, finding it empty. You quickly look &lt;br&gt;around, hoping to find something to defend yourself with, but all you &lt;br&gt;can find is a small kitchen knife. Suddenly, the noises from upstairs &lt;br&gt;grow louder and more ominous. You can hear someone coming downstairs.." style="rounded=0;whiteSpace=wrap;html=1;" parent="1" vertex="1">
          <mxGeometry x="370" y="940" width="420" height="200" as="geometry" />
        </mxCell>
        <mxCell id="w3264zR7rGeF_oMtsxfC-194" value="&lt;div&gt;Choice B1.1.1.1&lt;br&gt;&lt;/div&gt;&lt;div&gt;//&#39;&#39;&quot;You run downstairs, fearing that the person upstairs might be the killer.&#39;&#39;//&lt;/div&gt;&lt;div&gt;&lt;br&gt;&lt;/div&gt;&lt;div&gt;You run straight into the killer, who is waiting for you at the bottom &lt;br&gt;of the stairs. The last thing you hear is your best friend calling your &lt;br&gt;name, your vision fades to black, and a chilling silence descends. &lt;/div&gt;" style="rounded=0;whiteSpace=wrap;html=1;fillColor=#f8cecc;strokeColor=#FF3399;strokeWidth=7;" parent="1" vertex="1">
          <mxGeometry x="-410" y="1300" width="226" height="170" as="geometry" />
        </mxCell>
        <mxCell id="w3264zR7rGeF_oMtsxfC-195" style="edgeStyle=orthogonalEdgeStyle;rounded=0;orthogonalLoop=1;jettySize=auto;html=1;exitX=0;exitY=1;exitDx=0;exitDy=0;entryX=0.814;entryY=-0.024;entryDx=0;entryDy=0;entryPerimeter=0;" parent="1" target="w3264zR7rGeF_oMtsxfC-194" edge="1">
          <mxGeometry relative="1" as="geometry">
            <mxPoint x="-110" y="1170" as="sourcePoint" />
          </mxGeometry>
        </mxCell>
        <mxCell id="w3264zR7rGeF_oMtsxfC-197" value="&lt;div&gt;Choice B1.1.1.2&lt;/div&gt;&lt;div&gt;//&#39;&#39;&quot;You hide in the bathroom, you know for sure the sound was coming from the other side of the hallway&quot; &#39;&#39;//&lt;/div&gt;&lt;div&gt;&lt;br&gt;&lt;/div&gt;&lt;div&gt;&lt;br&gt;&lt;/div&gt;You strangely find a sense of safety in this bathroom. It&#39;s clean and &lt;br&gt;cozy, and the idea of climbing out the window doesn&#39;t seem appealing, &lt;br&gt;given your previous misadventure. Taking a moment to catch your breath, &lt;br&gt;you enjoy this false sense of security." style="rounded=0;whiteSpace=wrap;html=1;fillColor=#d80073;fontColor=#ffffff;strokeColor=#A50040;" parent="1" vertex="1">
          <mxGeometry x="-160" y="1280" width="290" height="210" as="geometry" />
        </mxCell>
        <mxCell id="w3264zR7rGeF_oMtsxfC-200" value="Choice B1.1.2.1&lt;div&gt;//&#39;&#39;you quickly hide yourself in the kitchen pantry, holding your knife ready.&#39;//&lt;/div&gt;&lt;div&gt;&lt;br&gt;&lt;p&gt;The floorboards in the hallway creak, and your heart races as you prepare to defend yourself with the small kitchen knife you found. You clutch the knife tightly, ready for a confrontation. Shaking with fear, you accidentally knock over a can of soup, which clatters to the floor, creating a loud noise.&lt;/p&gt;&lt;p&gt;Whomever is in the kitchen hears the noise and quickly runs in your direction. The door swings open, and it&#39;s the killer.&lt;/p&gt;&lt;p&gt;With the element of surprise lost, you engage in a desperate struggle with the killer. During the struggle, the killer manages to wound you. You feel a searing pain as the blade of the killer&#39;s knife cuts into you. The world begins to blur, and darkness engulfs your vision. The last thing you hear is the killer&#39;s menacing laughter.&lt;/p&gt;&lt;/div&gt;" style="rounded=0;whiteSpace=wrap;html=1;fillColor=#f8cecc;strokeColor=#b85450;" parent="1" vertex="1">
          <mxGeometry x="160" y="1260" width="370" height="300" as="geometry" />
        </mxCell>
        <mxCell id="w3264zR7rGeF_oMtsxfC-201" value="&lt;div&gt;Choice B1.1.2.2&lt;/div&gt;&lt;div&gt;//&#39;&#39;you&#39;re afraid it will be a killer and quietly sneak out the backdoor.&#39;&#39;//&lt;/div&gt;&lt;div&gt;&lt;br&gt;&lt;/div&gt;You sprint out of the house, driven by fear and desperation, knowing you need help to deal with this horrifying situation. Your phone is almost dead, and you feel completely unequipped to face whatever dangers lie ahead.&lt;p&gt;Once you reach a safe distance from the house, you manage to flag down a passing car. The driver calls the police for you, and they soon arrive at the scene. After a thorough search of the house, they find no evidence of a killer, and your best friend is nowhere to be found.&lt;/p&gt;&lt;p&gt;The police assure you that they will continue the investigation and search for your missing friend. As for the ominous noises and strange occurrences in the house, they remain a mystery. You&#39;re left with a sense of unease and unanswered questions, wondering what really happened that night.&lt;/p&gt;" style="rounded=0;whiteSpace=wrap;html=1;fillColor=#d5e8d4;strokeColor=#82b366;" parent="1" vertex="1">
          <mxGeometry x="540" y="1225" width="355" height="335" as="geometry" />
        </mxCell>
        <mxCell id="w3264zR7rGeF_oMtsxfC-215" style="edgeStyle=orthogonalEdgeStyle;rounded=0;orthogonalLoop=1;jettySize=auto;html=1;" parent="1" source="w3264zR7rGeF_oMtsxfC-208" edge="1">
          <mxGeometry relative="1" as="geometry">
            <mxPoint x="1765.9411764705883" y="1425" as="targetPoint" />
            <Array as="points">
              <mxPoint x="1525" y="1380" />
              <mxPoint x="1766" y="1380" />
            </Array>
          </mxGeometry>
        </mxCell>
        <mxCell id="w3264zR7rGeF_oMtsxfC-208" value="&lt;div&gt;Choice B1.2.1&lt;/div&gt;&lt;div&gt;//&#39;&#39;You&#39;re not scared, and you swing the door open with determination. &#39;//&lt;/div&gt;&lt;div&gt;&lt;br&gt;&lt;/div&gt;As the door pushes inward, you feel a sudden resistance, followed by a &lt;br&gt;swift, menacing strike from behind the door. A hand wielding a knife &lt;br&gt;slashes through the air just inches away from you, narrowly missing its &lt;br&gt;target. In the midst of this chaotic encounter, you notice your best &lt;br&gt;friend lying on the floor, surrounded by a chilling pool of blood." style="rounded=0;whiteSpace=wrap;html=1;" parent="1" vertex="1">
          <mxGeometry x="1120" y="1100" width="290" height="240" as="geometry" />
        </mxCell>
        <mxCell id="w3264zR7rGeF_oMtsxfC-212" value="" style="edgeStyle=orthogonalEdgeStyle;rounded=0;orthogonalLoop=1;jettySize=auto;html=1;" parent="1" source="w3264zR7rGeF_oMtsxfC-209" edge="1">
          <mxGeometry relative="1" as="geometry">
            <mxPoint x="1765.9411764705883" y="1425" as="targetPoint" />
          </mxGeometry>
        </mxCell>
        <mxCell id="w3264zR7rGeF_oMtsxfC-209" value="&lt;div&gt;Choice B1.2.2&lt;br&gt;&lt;/div&gt;&lt;div&gt;//&#39;put your ear on the door to try to make out if it&#39;s your friends voice.&#39;&#39;//&lt;/div&gt;&lt;div&gt;&lt;br&gt;&lt;/div&gt;&lt;div&gt;You press your ear against the door, attempting to discern if it&#39;s your &lt;br&gt;friend&#39;s voice. The sound is faint, but it does resemble your friend&#39;s &lt;br&gt;voice, murmuring something unintelligible. As you listen closely, you &lt;br&gt;suddenly hear a creaking sound, and then a sharp metallic scrape, &lt;br&gt;followed by an excruciating pain in your hand. You pull your ear away &lt;br&gt;from the door just in time to see a knife blade protruding through the &lt;br&gt;wood. It seems the killer has just jammed a knife &lt;br&gt;through the door, nicking the side of your hand.&lt;/div&gt;&lt;div&gt;&lt;br&gt;&lt;/div&gt;&lt;div&gt;*- health&lt;br&gt;&lt;/div&gt;" style="rounded=0;whiteSpace=wrap;html=1;fillColor=#ffe6cc;strokeColor=#d79b00;" parent="1" vertex="1">
          <mxGeometry x="1640" y="1055" width="380" height="285" as="geometry" />
        </mxCell>
        <mxCell id="w3264zR7rGeF_oMtsxfC-226" style="edgeStyle=orthogonalEdgeStyle;rounded=0;orthogonalLoop=1;jettySize=auto;html=1;exitX=0.75;exitY=1;exitDx=0;exitDy=0;" parent="1" source="w3264zR7rGeF_oMtsxfC-211" target="w3264zR7rGeF_oMtsxfC-224" edge="1">
          <mxGeometry relative="1" as="geometry" />
        </mxCell>
        <mxCell id="w3264zR7rGeF_oMtsxfC-211" value="&lt;div&gt;Choice B1.2.1/B1.2.2.1&lt;br&gt;&lt;/div&gt;&lt;div&gt;//&#39;You decide to run down the stairs, hoping to find help or escape.&#39;&#39;//&lt;/div&gt;&lt;div&gt;&lt;br&gt;&lt;/div&gt;&lt;div&gt; As you rush towards the staircase, your heartbeat quickens. But in your&lt;br&gt; haste, you trip over your own feet and tumble down the stairs. The &lt;br&gt;world spins as you collide with the hard steps, each impact more painful&lt;br&gt; than the last. When you finally come to a stop at the bottom, you&#39;re &lt;br&gt;battered and bruised.&lt;/div&gt;&lt;div&gt;&lt;br&gt;&lt;/div&gt;&lt;div&gt;*- health&lt;br&gt;&lt;/div&gt;" style="rounded=0;whiteSpace=wrap;html=1;fillColor=#ffe6cc;strokeColor=#d79b00;" parent="1" vertex="1">
          <mxGeometry x="1726" y="1430" width="303" height="285" as="geometry" />
        </mxCell>
        <mxCell id="w3264zR7rGeF_oMtsxfC-259" style="edgeStyle=orthogonalEdgeStyle;rounded=0;orthogonalLoop=1;jettySize=auto;html=1;exitX=0;exitY=0.75;exitDx=0;exitDy=0;entryX=0.25;entryY=0;entryDx=0;entryDy=0;" parent="1" source="w3264zR7rGeF_oMtsxfC-217" target="w3264zR7rGeF_oMtsxfC-218" edge="1">
          <mxGeometry relative="1" as="geometry" />
        </mxCell>
        <mxCell id="w3264zR7rGeF_oMtsxfC-260" style="edgeStyle=orthogonalEdgeStyle;rounded=0;orthogonalLoop=1;jettySize=auto;html=1;exitX=0;exitY=1;exitDx=0;exitDy=0;" parent="1" source="w3264zR7rGeF_oMtsxfC-217" edge="1">
          <mxGeometry relative="1" as="geometry">
            <mxPoint x="760" y="1810" as="targetPoint" />
          </mxGeometry>
        </mxCell>
        <mxCell id="w3264zR7rGeF_oMtsxfC-217" value="&lt;div&gt;Choice B1.2.1.1&lt;/div&gt;&lt;div&gt;//&#39;You dash to the nightstand and grab the lamp, hoping to gain the upper hand.&#39;&#39;//&lt;/div&gt;&lt;div&gt;&lt;br&gt;&lt;/div&gt;&lt;div class=&quot;flex flex-grow flex-col gap-3 max-w-full&quot;&gt;&lt;div class=&quot;min-h-[20px] flex flex-col items-start gap-3 whitespace-pre-wrap break-words overflow-x-auto&quot;&gt;&lt;div class=&quot;markdown prose w-full break-words dark:prose-invert light&quot;&gt;&lt;p&gt;You dash toward the nightstand to grab the lamp, your heart racing. However, just as you reach for it, the killer bursts out from behind the door, catching you off guard. In the dim light, you notice that the killer is wearing a horrifying mask, its features contorted into a menacing grin. Despite the fear gripping you, you muster every ounce of strength and swing the lamp with all your might.&lt;/p&gt;&lt;p&gt;The impact is fierce, and you connect with the killer&#39;s head. They collapse to the floor, the mask hiding the pain on their face, seemingly unconscious. &lt;br&gt;&lt;/p&gt;&lt;/div&gt;&lt;/div&gt;&lt;/div&gt;&lt;div&gt;&lt;br&gt;&lt;/div&gt;" style="rounded=0;whiteSpace=wrap;html=1;" parent="1" vertex="1">
          <mxGeometry x="920" y="1470" width="347" height="285" as="geometry" />
        </mxCell>
        <mxCell id="w3264zR7rGeF_oMtsxfC-218" value="&lt;div&gt;Choice 1.1.1&lt;br&gt;&lt;/div&gt;&lt;div&gt;//&#39;You take a deep breath and decide to pass by the fallen killer&#39;s body to&lt;br&gt; go downstairs and seek help. Your heart is pounding as you pass the killer.&lt;br&gt;&lt;/div&gt;&lt;div&gt;&lt;br&gt;&lt;/div&gt;you carefully step over the lifeless figure and make your way towards &lt;br/&gt;the bedroom door. As you reach it, a sudden noise behind you sends &lt;br/&gt;shivers down your spine. The killer is standing up, and their menacing &lt;br/&gt;presence fills the room. They begin to run after you, and just as you &lt;br/&gt;reach the stairs, they catch up to you. The killer grabs you, and in a &lt;br/&gt;horrifying, final moment, they drive the knife through your head. You &lt;br/&gt;plummet to your death down the stairs, your world plunging into &lt;br/&gt;darkness. Your story ends here, another victim of the relentless killer.&lt;div&gt;&lt;br&gt;&lt;/div&gt;" style="rounded=0;whiteSpace=wrap;html=1;fillColor=#f8cecc;strokeColor=#b85450;" parent="1" vertex="1">
          <mxGeometry x="300" y="1825" width="385" height="300" as="geometry" />
        </mxCell>
        <mxCell id="w3264zR7rGeF_oMtsxfC-220" value="Choice B1.2.1.1.2&lt;div&gt;//&#39;The window seems like a quicker escape route, so you decide to climb out and get help as fast as you can. .&lt;/div&gt;&lt;div&gt;&lt;br&gt;&lt;/div&gt;&lt;p&gt;After choosing to escape through the window, you quickly squeeze through the opening and hang onto the window frame. As you look down, you realize it&#39;s further down than you thought, and the ground looks daunting. But when you look up, the killer is standing in the window, their menacing presence sending chills down your spine. Without a second thought, you let yourself go, hitting the ground with a painful thud.&lt;/p&gt;&lt;p&gt;Though you&#39;re hurt and shaken, you&#39;re relieved that your legs are still functional. You muster all the strength you can, standing up as fast as possible. With adrenaline surging through your veins, you keep moving, running through the dark night. The story continues as you navigate through the horrors of the night, striving to survive until dawn.&lt;/p&gt;" style="rounded=0;whiteSpace=wrap;html=1;fillColor=#e1d5e7;strokeColor=#9673a6;" parent="1" vertex="1">
          <mxGeometry x="697" y="1815" width="390" height="300" as="geometry" />
        </mxCell>
        <mxCell id="w3264zR7rGeF_oMtsxfC-271" style="edgeStyle=orthogonalEdgeStyle;rounded=0;orthogonalLoop=1;jettySize=auto;html=1;exitX=0.5;exitY=1;exitDx=0;exitDy=0;entryX=0.75;entryY=0;entryDx=0;entryDy=0;" parent="1" source="w3264zR7rGeF_oMtsxfC-222" target="w3264zR7rGeF_oMtsxfC-228" edge="1">
          <mxGeometry relative="1" as="geometry" />
        </mxCell>
        <mxCell id="w3264zR7rGeF_oMtsxfC-222" value="&lt;div&gt;Choice B1.2.2.1.1&lt;/div&gt;&lt;div&gt;//&#39;You fumble for your phone, trying to ignore the pain coursing through your body.&#39;&#39;//&lt;/div&gt;&lt;div class=&quot;flex flex-grow flex-col gap-3 max-w-full&quot;&gt;&lt;div class=&quot;min-h-[20px] flex flex-col items-start gap-3 whitespace-pre-wrap break-words overflow-x-auto&quot;&gt;&lt;div class=&quot;markdown prose w-full break-words dark:prose-invert light&quot;&gt;&lt;p&gt;With trembling fingers, you manage to grasp it and dial 911. You hear the phone ringing, and your heart pounds with anticipation. However, as the killer stands at the top of the stairs. You don&#39;t know if the call connected successfully. The beeping sound from your nearly empty phone intensifies, and a notification pops up: &quot;Battery critically low, shutting down.&quot;&lt;/p&gt;&lt;p&gt;Time is running out, and you must act quickly to survive.&lt;/p&gt;&lt;/div&gt;&lt;/div&gt;&lt;/div&gt;" style="rounded=0;whiteSpace=wrap;html=1;" parent="1" vertex="1">
          <mxGeometry x="1463" y="1755" width="303" height="285" as="geometry" />
        </mxCell>
        <mxCell id="w3264zR7rGeF_oMtsxfC-272" style="edgeStyle=orthogonalEdgeStyle;rounded=0;orthogonalLoop=1;jettySize=auto;html=1;exitX=0.75;exitY=1;exitDx=0;exitDy=0;" parent="1" source="w3264zR7rGeF_oMtsxfC-224" target="w3264zR7rGeF_oMtsxfC-268" edge="1">
          <mxGeometry relative="1" as="geometry" />
        </mxCell>
        <mxCell id="w3264zR7rGeF_oMtsxfC-224" value="&lt;div&gt;Choice B1.2.2.1.2&lt;/div&gt;&lt;div&gt;//&#39;You struggle to your feet and try to leave the house through the front door. .&#39;&#39;//&lt;/div&gt;&lt;div&gt;&lt;br&gt;&lt;/div&gt;&lt;div class=&quot;flex flex-grow flex-col gap-3 max-w-full&quot;&gt;&lt;div class=&quot;min-h-[20px] flex flex-col items-start gap-3 whitespace-pre-wrap break-words overflow-x-auto&quot;&gt;&lt;div class=&quot;markdown prose w-full break-words dark:prose-invert light&quot;&gt;&lt;p&gt;You push yourself to your feet, determined to escape the relentless horror. With every step, you hobble towards the front door, desperate to get away. Grasping the handle, you pull it open, revealing the safety of the neighborhood, though your battered body slows you down.&lt;/p&gt;&lt;p&gt;In a final act of desperation, the killer throws their knife, hitting your leg and causing you to cry out in pain. As you collapse just outside the front door, you hear the piercing wail of approaching police sirens. The dark figure of the killer fades into the night, leaving you with hope for survival.&lt;/p&gt;&lt;p&gt;&lt;br&gt;&lt;/p&gt;&lt;p&gt;*-health&lt;br&gt;&lt;/p&gt;&lt;/div&gt;&lt;/div&gt;&lt;/div&gt;" style="rounded=0;whiteSpace=wrap;html=1;fillColor=#ffe6cc;strokeColor=#d79b00;" parent="1" vertex="1">
          <mxGeometry x="1880" y="1755" width="330" height="305" as="geometry" />
        </mxCell>
        <mxCell id="w3264zR7rGeF_oMtsxfC-225" style="edgeStyle=orthogonalEdgeStyle;rounded=0;orthogonalLoop=1;jettySize=auto;html=1;exitX=0;exitY=1;exitDx=0;exitDy=0;entryX=0.807;entryY=0;entryDx=0;entryDy=0;entryPerimeter=0;" parent="1" source="w3264zR7rGeF_oMtsxfC-211" target="w3264zR7rGeF_oMtsxfC-222" edge="1">
          <mxGeometry relative="1" as="geometry" />
        </mxCell>
        <mxCell id="w3264zR7rGeF_oMtsxfC-227" value="&lt;div&gt;Choice B1.2.2.1.1.1&lt;/div&gt;&lt;div&gt;//&#39;You can&#39;t see anything in the darkness, so you use your hands to search for something to defend yourself.//&lt;/div&gt;&lt;div&gt;&lt;br&gt;&lt;/div&gt;&lt;div class=&quot;flex flex-grow flex-col gap-3 max-w-full&quot;&gt;&lt;div class=&quot;min-h-[20px] flex flex-col items-start gap-3 whitespace-pre-wrap break-words overflow-x-auto&quot;&gt;In the darkness, you blindly search for something to defend yourself, &lt;br&gt;your fingers brushing various objects. Eventually, you find a slender &lt;br&gt;object that turns out to be an umbrella. As you clutch it tightly, you &lt;br&gt;hear the ominous rush of the killer descending the stairs. With &lt;br&gt;adrenaline surging, you thrust the umbrella&#39;s tip into the intruder&#39;s &lt;br&gt;body. &lt;br&gt;&lt;div class=&quot;markdown prose w-full break-words dark:prose-invert light&quot;&gt;&lt;div class=&quot;flex flex-grow flex-col gap-3 max-w-full&quot;&gt;&lt;div class=&quot;min-h-[20px] flex flex-col items-start gap-3 whitespace-pre-wrap break-words overflow-x-auto&quot;&gt;&lt;div class=&quot;markdown prose w-full break-words dark:prose-invert light&quot;&gt;&lt;p&gt;They let out a guttural cry and stumble backward, wounded and disoriented.&lt;/p&gt;&lt;p&gt;The sound of approaching sirens fills the air, signifying the police are on their way. Relief washes over you as you, waiting for the arrival of law enforcement.&lt;/p&gt;&lt;p&gt;When the police finally enter the dark and chaotic scene, they find you with the umbrella that helped you defend yourself. The killer is taken into custody, and the nightmare comes to an end.&lt;/p&gt;&lt;p&gt;Your successful defense and the sound of police sirens offer hope in the darkness.&lt;/p&gt;&lt;/div&gt;&lt;/div&gt;&lt;/div&gt;&lt;/div&gt;&lt;div class=&quot;markdown prose w-full break-words dark:prose-invert light&quot;&gt;&lt;br&gt;&lt;/div&gt;&lt;div class=&quot;markdown prose w-full break-words dark:prose-invert light&quot;&gt;&lt;br&gt;&lt;/div&gt;&lt;/div&gt;&lt;/div&gt;" style="rounded=0;whiteSpace=wrap;html=1;fillColor=#d5e8d4;strokeColor=#82b366;" parent="1" vertex="1">
          <mxGeometry x="800" y="2170" width="460" height="360" as="geometry" />
        </mxCell>
        <mxCell id="w3264zR7rGeF_oMtsxfC-228" value="&lt;div&gt;Choice B1.2.2.1.1.2&lt;/div&gt;&lt;div&gt;//&#39;In the oppressive darkness, you fumble around with your hands, searching for anything to hide behind.&#39;&#39;//&lt;/div&gt;&lt;div&gt;&lt;br&gt;&lt;/div&gt;&lt;div class=&quot;flex flex-grow flex-col gap-3 max-w-full&quot;&gt;&lt;div class=&quot;min-h-[20px] flex flex-col items-start gap-3 whitespace-pre-wrap break-words overflow-x-auto&quot;&gt;&lt;div class=&quot;markdown prose w-full break-words dark:prose-invert light&quot;&gt;You grope your way through the inky blackness until your fingers &lt;br&gt;encounter something solidâ€”a small table with a cloth draped over it. You&lt;br&gt; carefully slide behind it, barely daring to breathe. &lt;br&gt;&lt;/div&gt;&lt;div class=&quot;markdown prose w-full break-words dark:prose-invert light&quot;&gt;&lt;br&gt;&lt;/div&gt;&lt;div class=&quot;markdown prose w-full break-words dark:prose-invert light&quot;&gt;Your heart races, and you watch in terrified silence as the silhouette of the killer descends the stairs.&lt;p&gt;The figure passes right by you, mere inches away, seemingly unaware of your presence. As they reach the bottom of the stairs, they flick on the hallway light. The sudden burst of illumination makes your heart leap with fear.&lt;/p&gt;&lt;/div&gt;&lt;/div&gt;&lt;/div&gt;" style="rounded=0;whiteSpace=wrap;html=1;" parent="1" vertex="1">
          <mxGeometry x="1310" y="2150" width="374" height="285" as="geometry" />
        </mxCell>
        <mxCell id="w3264zR7rGeF_oMtsxfC-229" style="edgeStyle=orthogonalEdgeStyle;rounded=0;orthogonalLoop=1;jettySize=auto;html=1;exitX=0.25;exitY=1;exitDx=0;exitDy=0;entryX=0.713;entryY=-0.01;entryDx=0;entryDy=0;entryPerimeter=0;" parent="1" source="w3264zR7rGeF_oMtsxfC-222" target="w3264zR7rGeF_oMtsxfC-227" edge="1">
          <mxGeometry relative="1" as="geometry" />
        </mxCell>
        <mxCell id="w3264zR7rGeF_oMtsxfC-231" value="&lt;div&gt;Choice B1.2.2.1.1.2.1&lt;/div&gt;&lt;div&gt;//&#39;Stay hidden and silent behind the table, hoping the killer will leave the hallway and you can make your escape.&#39;&#39;//&lt;/div&gt;&lt;div&gt;&lt;br&gt;&lt;/div&gt;&lt;div class=&quot;flex flex-grow flex-col gap-3 max-w-full&quot;&gt;&lt;div class=&quot;min-h-[20px] flex flex-col items-start gap-3 whitespace-pre-wrap break-words overflow-x-auto&quot;&gt;&lt;div class=&quot;flex flex-grow flex-col gap-3 max-w-full&quot;&gt;&lt;div class=&quot;min-h-[20px] flex flex-col items-start gap-3 whitespace-pre-wrap break-words overflow-x-auto&quot;&gt;&lt;div class=&quot;markdown prose w-full break-words dark:prose-invert light&quot;&gt;&lt;p&gt;You decide to stay hidden behind the table, hoping that the killer will eventually leave the hallway, allowing you to make a silent escape. However, as you crouch there, you realize your hopes might be in vain. The killer seems to be aware of your presence, likely hearing your fall down the stairs and spotting the blood drops from your injured hand. With grim determination, the killer approaches your hiding place.&lt;/p&gt;&lt;p&gt;Your Halloween night comes to a gruesome end in that dimly lit hallway as the killer discovers you.&lt;/p&gt;&lt;/div&gt;&lt;/div&gt;&lt;/div&gt;&lt;/div&gt;&lt;/div&gt;" style="rounded=0;whiteSpace=wrap;html=1;fillColor=#f8cecc;strokeColor=#b85450;" parent="1" vertex="1">
          <mxGeometry x="1103" y="2555" width="374" height="285" as="geometry" />
        </mxCell>
        <mxCell id="w3264zR7rGeF_oMtsxfC-236" style="edgeStyle=orthogonalEdgeStyle;rounded=0;orthogonalLoop=1;jettySize=auto;html=1;exitX=0.25;exitY=1;exitDx=0;exitDy=0;entryX=0.75;entryY=0;entryDx=0;entryDy=0;" parent="1" source="w3264zR7rGeF_oMtsxfC-232" target="w3264zR7rGeF_oMtsxfC-234" edge="1">
          <mxGeometry relative="1" as="geometry" />
        </mxCell>
        <mxCell id="w3264zR7rGeF_oMtsxfC-265" style="edgeStyle=orthogonalEdgeStyle;rounded=0;orthogonalLoop=1;jettySize=auto;html=1;entryX=0.5;entryY=0;entryDx=0;entryDy=0;" parent="1" source="w3264zR7rGeF_oMtsxfC-232" edge="1">
          <mxGeometry relative="1" as="geometry">
            <mxPoint x="1700" y="2985" as="targetPoint" />
          </mxGeometry>
        </mxCell>
        <mxCell id="w3264zR7rGeF_oMtsxfC-232" value="Choice B1.2.2.1.1.2.2&lt;div&gt;//&#39;Seize this moment of distraction to run for your life, hoping to make it&lt;br&gt; to safety before the killer realizes where you are hiding&#39;//&lt;/div&gt;&lt;div&gt;&lt;br&gt;&lt;/div&gt;&lt;div class=&quot;flex flex-grow flex-col gap-3 max-w-full&quot;&gt;&lt;div class=&quot;min-h-[20px] flex flex-col items-start gap-3 whitespace-pre-wrap break-words overflow-x-auto&quot;&gt;You seize the moment to run for your life, hoping to reach safety before&lt;br&gt; the killer realizes your hiding spot. In your rush, you accidentally &lt;br&gt;knock over a side table, sending it crashing to the floor. As you sprint&lt;br&gt; away, a shard of glass from the broken table pierces through your shoe,&lt;br&gt; painfully wounding your foot. Despite the injury, you push forward, &lt;br&gt;limping and determined to put as much distance as possible between you &lt;br&gt;and the relentless killer.&lt;br&gt;&lt;br&gt;You end up in the living room, making a beeline for the sliding glass &lt;br&gt;door. Your heart pounds with fear as you try to open it, but the door &lt;br&gt;seems stuck, refusing to budge.&lt;/div&gt;&lt;div class=&quot;min-h-[20px] flex flex-col items-start gap-3 whitespace-pre-wrap break-words overflow-x-auto&quot;&gt;&lt;br&gt;&lt;/div&gt;&lt;div class=&quot;min-h-[20px] flex flex-col items-start gap-3 whitespace-pre-wrap break-words overflow-x-auto&quot;&gt;* - health&lt;br&gt;&lt;/div&gt;&lt;/div&gt;" style="rounded=0;whiteSpace=wrap;html=1;fillColor=#ffe6cc;strokeColor=#d79b00;" parent="1" vertex="1">
          <mxGeometry x="1533" y="2555" width="400" height="285" as="geometry" />
        </mxCell>
        <mxCell id="w3264zR7rGeF_oMtsxfC-233" style="edgeStyle=orthogonalEdgeStyle;rounded=0;orthogonalLoop=1;jettySize=auto;html=1;exitX=0.25;exitY=1;exitDx=0;exitDy=0;entryX=0.777;entryY=-0.004;entryDx=0;entryDy=0;entryPerimeter=0;" parent="1" source="w3264zR7rGeF_oMtsxfC-228" target="w3264zR7rGeF_oMtsxfC-231" edge="1">
          <mxGeometry relative="1" as="geometry" />
        </mxCell>
        <mxCell id="w3264zR7rGeF_oMtsxfC-234" value="&lt;div&gt;Choice B1.2.2.1.1.2.2.1&lt;/div&gt;&lt;div&gt;//&#39;Desperation takes over, and you decide to break the glass to escape.//&lt;/div&gt;&lt;div&gt;&lt;br&gt;&lt;/div&gt;&lt;div class=&quot;flex flex-grow flex-col gap-3 max-w-full&quot;&gt;&lt;div class=&quot;min-h-[20px] flex flex-col items-start gap-3 whitespace-pre-wrap break-words overflow-x-auto&quot;&gt;The glass shatters, and as you try to pass through the broken pane, &lt;br&gt;shards of glass cut into you. You feel the warmth of your own blood &lt;br&gt;soaking through your clothes, but the adrenaline pushes you forward. &lt;br&gt;With the last of your strength, you run into the dark backyard and find &lt;br&gt;refuge behind a tree. The sounds of approaching sirens in the distance &lt;br&gt;offer a glimmer of hope â€“ your call for help came through.&lt;/div&gt;&lt;div class=&quot;min-h-[20px] flex flex-col items-start gap-3 whitespace-pre-wrap break-words overflow-x-auto&quot;&gt;&lt;br&gt;&lt;/div&gt;&lt;div class=&quot;min-h-[20px] flex flex-col items-start gap-3 whitespace-pre-wrap break-words overflow-x-auto&quot;&gt;* - health&lt;br&gt;&lt;/div&gt;&lt;/div&gt;" style="rounded=0;whiteSpace=wrap;html=1;fillColor=#ffe6cc;strokeColor=#d79b00;" parent="1" vertex="1">
          <mxGeometry x="875" y="2985" width="400" height="285" as="geometry" />
        </mxCell>
        <mxCell id="w3264zR7rGeF_oMtsxfC-235" value="&lt;div&gt;Choice B1.2.2.1.1.2.2.2&lt;/div&gt;&lt;div&gt;//&#39;You continue trying to open the door with all your strength, hoping it will give way.//&lt;/div&gt;&lt;div&gt;&lt;br&gt;&lt;/div&gt;&lt;div class=&quot;flex flex-grow flex-col gap-3 max-w-full&quot;&gt;You continue trying to open the door with all your strength, hoping it &lt;br&gt;will give way. The glass remains stubborn, refusing to budge, and as you&lt;br&gt; desperately attempt to force it open, the killer draws closer. You &lt;br&gt;realize that it&#39;s a lost cause, and you abandon your efforts to escape &lt;br&gt;through the sliding door. Panicking, you turn to flee, but the killer &lt;br&gt;swiftly catches up to you, bringing your Halloween night to a grim and &lt;br&gt;tragic conclusion.&lt;/div&gt;" style="rounded=0;whiteSpace=wrap;html=1;fillColor=#f8cecc;strokeColor=#b85450;" parent="1" vertex="1">
          <mxGeometry x="1390" y="2985" width="400" height="285" as="geometry" />
        </mxCell>
        <mxCell id="w3264zR7rGeF_oMtsxfC-237" style="edgeStyle=orthogonalEdgeStyle;rounded=0;orthogonalLoop=1;jettySize=auto;html=1;exitX=0.5;exitY=1;exitDx=0;exitDy=0;entryX=0.331;entryY=0.006;entryDx=0;entryDy=0;entryPerimeter=0;" parent="1" source="w3264zR7rGeF_oMtsxfC-228" target="w3264zR7rGeF_oMtsxfC-232" edge="1">
          <mxGeometry relative="1" as="geometry" />
        </mxCell>
        <mxCell id="w3264zR7rGeF_oMtsxfC-239" value="The police arrives to find your lifeless body, brutally beaten and &lt;br/&gt;covered in blood. It&#39;s a tragic end to a horrifying night, and your &lt;br/&gt;story concludes here." style="rounded=0;whiteSpace=wrap;html=1;fillColor=#f8cecc;strokeColor=#b85450;" parent="1" vertex="1">
          <mxGeometry x="760" y="3300" width="280" height="165" as="geometry" />
        </mxCell>
        <mxCell id="w3264zR7rGeF_oMtsxfC-241" value="&#xa;The police find you unconscious, your body weakened by the loss of &#xa;blood. You wake up in the hospital, surrounded by the comforting sounds &#xa;of medical equipment and the warm presence of the hospital staff. You &#xa;learn that the police have not yet captured the killer. While you&#39;ve &#xa;survived the horrifying night, you remain vigilant, knowing that the &#xa;threat may still be out there. Your story ends with a mix of relief and &#xa;lingering unease.&#xa;&#xa;" style="rounded=0;whiteSpace=wrap;html=1;fillColor=#d5e8d4;strokeColor=#82b366;" parent="1" vertex="1">
          <mxGeometry x="1080.6" y="3300" width="370" height="250" as="geometry" />
        </mxCell>
        <mxCell id="w3264zR7rGeF_oMtsxfC-242" style="edgeStyle=orthogonalEdgeStyle;rounded=0;orthogonalLoop=1;jettySize=auto;html=1;exitX=0;exitY=0.5;exitDx=0;exitDy=0;entryX=0.44;entryY=0;entryDx=0;entryDy=0;entryPerimeter=0;" parent="1" source="w3264zR7rGeF_oMtsxfC-4" target="w3264zR7rGeF_oMtsxfC-10" edge="1">
          <mxGeometry relative="1" as="geometry" />
        </mxCell>
        <mxCell id="w3264zR7rGeF_oMtsxfC-256" style="edgeStyle=orthogonalEdgeStyle;rounded=0;orthogonalLoop=1;jettySize=auto;html=1;exitX=0;exitY=1;exitDx=0;exitDy=0;entryX=0.397;entryY=-0.011;entryDx=0;entryDy=0;entryPerimeter=0;" parent="1" source="w3264zR7rGeF_oMtsxfC-191" target="w3264zR7rGeF_oMtsxfC-200" edge="1">
          <mxGeometry relative="1" as="geometry" />
        </mxCell>
        <mxCell id="w3264zR7rGeF_oMtsxfC-258" style="edgeStyle=orthogonalEdgeStyle;rounded=0;orthogonalLoop=1;jettySize=auto;html=1;exitX=0;exitY=0.5;exitDx=0;exitDy=0;entryX=0.4;entryY=0.014;entryDx=0;entryDy=0;entryPerimeter=0;" parent="1" source="w3264zR7rGeF_oMtsxfC-208" target="w3264zR7rGeF_oMtsxfC-217" edge="1">
          <mxGeometry relative="1" as="geometry" />
        </mxCell>
        <mxCell id="w3264zR7rGeF_oMtsxfC-262" style="edgeStyle=orthogonalEdgeStyle;rounded=0;orthogonalLoop=1;jettySize=auto;html=1;exitX=0.5;exitY=1;exitDx=0;exitDy=0;" parent="1" source="w3264zR7rGeF_oMtsxfC-239" target="w3264zR7rGeF_oMtsxfC-239" edge="1">
          <mxGeometry relative="1" as="geometry" />
        </mxCell>
        <mxCell id="w3264zR7rGeF_oMtsxfC-263" style="edgeStyle=orthogonalEdgeStyle;rounded=0;orthogonalLoop=1;jettySize=auto;html=1;exitX=0.25;exitY=1;exitDx=0;exitDy=0;entryX=0.691;entryY=0.023;entryDx=0;entryDy=0;entryPerimeter=0;" parent="1" source="w3264zR7rGeF_oMtsxfC-234" target="w3264zR7rGeF_oMtsxfC-239" edge="1">
          <mxGeometry relative="1" as="geometry" />
        </mxCell>
        <mxCell id="w3264zR7rGeF_oMtsxfC-264" style="edgeStyle=orthogonalEdgeStyle;rounded=0;orthogonalLoop=1;jettySize=auto;html=1;exitX=0.75;exitY=1;exitDx=0;exitDy=0;entryX=0.32;entryY=-0.007;entryDx=0;entryDy=0;entryPerimeter=0;" parent="1" source="w3264zR7rGeF_oMtsxfC-234" target="w3264zR7rGeF_oMtsxfC-241" edge="1">
          <mxGeometry relative="1" as="geometry" />
        </mxCell>
        <mxCell id="w3264zR7rGeF_oMtsxfC-267" value="&lt;div class=&quot;flex flex-grow flex-col gap-3 max-w-full&quot;&gt;&lt;div class=&quot;min-h-[20px] flex flex-col items-start gap-3 whitespace-pre-wrap break-words overflow-x-auto&quot;&gt;&lt;div class=&quot;markdown prose w-full break-words dark:prose-invert light&quot;&gt;&lt;p&gt;As you lie on the ground, your vision blurred from pain, the distant sound of approaching sirens grows louder. The red and blue lights of police cars flash through the dark, painting eerie patterns on the walls. Within moments, officers swarm around you, providing assistance and ensuring your safety.&lt;/p&gt;&lt;p&gt;An ambulance arrives, its wailing siren piercing the night. Paramedics rush to your side, attending to your wounds with haste and precision. You are swiftly loaded into the ambulance, the doors closing with a sense of security and relief.&lt;/p&gt;&lt;p&gt;As you&#39;re transported to the nearest hospital, you can&#39;t help but reflect on the night&#39;s horrors. There is no sign of the killer, and for now, the nightmare appears to be over. You find solace in the knowledge that you&#39;ve escaped their clutches and have a chance at recovery, both physically and emotionally.&lt;/p&gt;&lt;/div&gt;&lt;/div&gt;&lt;/div&gt;" style="rounded=0;whiteSpace=wrap;html=1;fillColor=#d5e8d4;strokeColor=#82b366;" parent="1" vertex="1">
          <mxGeometry x="1740" y="2095" width="340" height="360" as="geometry" />
        </mxCell>
        <mxCell id="w3264zR7rGeF_oMtsxfC-268" value="&lt;div class=&quot;flex flex-grow flex-col gap-3 max-w-full&quot;&gt;&lt;div class=&quot;min-h-[20px] flex flex-col items-start gap-3 whitespace-pre-wrap break-words overflow-x-auto&quot;&gt;&lt;div class=&quot;markdown prose w-full break-words dark:prose-invert light&quot;&gt;&lt;p&gt;As you lie on the ground, your vision blurred from pain, the distant sound of approaching sirens grows louder. The red and blue lights of police cars flash through the dark, painting eerie patterns on the walls. Within moments, officers swarm around you, providing assistance and ensuring your safety.&lt;/p&gt;&lt;p&gt;An ambulance arrives, its wailing siren piercing the night. Paramedics rush to your side, attending to your visible wounds with haste and precision. However, as they work on you, you suddenly begin to cough up blood, a sign of potential internal injuries from your fall down the stairs.&lt;/p&gt;&lt;p&gt;Despite their best efforts, your condition deteriorates rapidly during the ambulance ride. You struggle to breathe as the pain intensifies, and your vision fades. The paramedics desperately attempt to save you, but as you slip away, you can&#39;t help but feel that the night&#39;s terrors have taken their toll.&lt;/p&gt;&lt;/div&gt;&lt;/div&gt;&lt;/div&gt;" style="rounded=0;whiteSpace=wrap;html=1;fillColor=#f8cecc;strokeColor=#b85450;" parent="1" vertex="1">
          <mxGeometry x="2100" y="2095" width="330" height="365" as="geometry" />
        </mxCell>
        <mxCell id="w3264zR7rGeF_oMtsxfC-269" style="edgeStyle=orthogonalEdgeStyle;rounded=0;orthogonalLoop=1;jettySize=auto;html=1;exitX=0.25;exitY=1;exitDx=0;exitDy=0;entryX=0.447;entryY=-0.004;entryDx=0;entryDy=0;entryPerimeter=0;" parent="1" source="w3264zR7rGeF_oMtsxfC-224" target="w3264zR7rGeF_oMtsxfC-267" edge="1">
          <mxGeometry relative="1" as="geometry" />
        </mxCell>
        <mxCell id="w3264zR7rGeF_oMtsxfC-289" style="edgeStyle=orthogonalEdgeStyle;rounded=0;orthogonalLoop=1;jettySize=auto;html=1;entryX=0.588;entryY=0.009;entryDx=0;entryDy=0;entryPerimeter=0;" parent="1" source="w3264zR7rGeF_oMtsxfC-81" target="w3264zR7rGeF_oMtsxfC-125" edge="1">
          <mxGeometry relative="1" as="geometry" />
        </mxCell>
        <mxCell id="w3264zR7rGeF_oMtsxfC-303" style="edgeStyle=orthogonalEdgeStyle;rounded=0;orthogonalLoop=1;jettySize=auto;html=1;exitX=0.25;exitY=1;exitDx=0;exitDy=0;entryX=0.692;entryY=0.011;entryDx=0;entryDy=0;entryPerimeter=0;" parent="1" source="w3264zR7rGeF_oMtsxfC-97" target="w3264zR7rGeF_oMtsxfC-119" edge="1">
          <mxGeometry relative="1" as="geometry" />
        </mxCell>
        <mxCell id="w3264zR7rGeF_oMtsxfC-311" style="edgeStyle=orthogonalEdgeStyle;rounded=0;orthogonalLoop=1;jettySize=auto;html=1;exitX=0.5;exitY=1;exitDx=0;exitDy=0;entryX=0.637;entryY=0.023;entryDx=0;entryDy=0;entryPerimeter=0;" parent="1" source="w3264zR7rGeF_oMtsxfC-139" target="w3264zR7rGeF_oMtsxfC-148" edge="1">
          <mxGeometry relative="1" as="geometry" />
        </mxCell>
        <mxCell id="w3264zR7rGeF_oMtsxfC-313" style="edgeStyle=orthogonalEdgeStyle;rounded=0;orthogonalLoop=1;jettySize=auto;html=1;exitX=0.5;exitY=1;exitDx=0;exitDy=0;entryX=0.637;entryY=-0.017;entryDx=0;entryDy=0;entryPerimeter=0;" parent="1" source="w3264zR7rGeF_oMtsxfC-135" target="w3264zR7rGeF_oMtsxfC-148" edge="1">
          <mxGeometry relative="1" as="geometry" />
        </mxCell>
        <mxCell id="w3264zR7rGeF_oMtsxfC-322" style="edgeStyle=orthogonalEdgeStyle;rounded=0;orthogonalLoop=1;jettySize=auto;html=1;exitX=0;exitY=1;exitDx=0;exitDy=0;entryX=0.542;entryY=-0.009;entryDx=0;entryDy=0;entryPerimeter=0;" parent="1" source="w3264zR7rGeF_oMtsxfC-148" target="w3264zR7rGeF_oMtsxfC-160" edge="1">
          <mxGeometry relative="1" as="geometry" />
        </mxCell>
        <mxCell id="w3264zR7rGeF_oMtsxfC-328" style="edgeStyle=orthogonalEdgeStyle;rounded=0;orthogonalLoop=1;jettySize=auto;html=1;exitX=0.5;exitY=1;exitDx=0;exitDy=0;" parent="1" source="w3264zR7rGeF_oMtsxfC-165" target="w3264zR7rGeF_oMtsxfC-165" edge="1">
          <mxGeometry relative="1" as="geometry" />
        </mxCell>
        <mxCell id="w3264zR7rGeF_oMtsxfC-174" value="&lt;div&gt;&lt;br&gt;&lt;/div&gt;&lt;div&gt;&lt;br&gt;&lt;/div&gt;&lt;div&gt;&lt;br&gt;&lt;/div&gt;&lt;div&gt;&lt;br&gt;&lt;/div&gt;&lt;div&gt;&lt;br&gt;&lt;/div&gt;&lt;div&gt;&lt;br&gt;&lt;/div&gt;&lt;div&gt;&lt;br&gt;&lt;/div&gt;&lt;div&gt;Choice D1.1.1.2.1.2.2.1.1/D1.1.2.2.1.2.1.1&lt;/div&gt;&lt;div&gt;//&quot;You think to recognize your best friend in the figure, and make your way downstairs //&lt;/div&gt;&lt;div&gt;&lt;br&gt;&lt;/div&gt;&lt;p&gt;Regrettably, it&#39;s not your best friend; it&#39;s the killer. Your heart sinks as you realize that the person you thought was your friend was a mere illusion. Your story takes a dark turn here.&lt;/p&gt;&lt;p&gt;The room seems to close in around you, and the air grows heavy with tension as you lock eyes with the masked killer. There&#39;s a moment of sheer dread as you recognize the malevolent intent in their gaze.&lt;/p&gt;&lt;p&gt;With a swift and chilling precision, the killer makes their move. The world around you blurs as your story comes to a spine-tingling conclusion.&lt;/p&gt;&lt;div&gt;&lt;br&gt;&lt;/div&gt;&lt;div&gt;&lt;br&gt;&lt;/div&gt;&lt;div&gt;&lt;br&gt;&lt;/div&gt;&lt;div&gt;&lt;br&gt;&lt;/div&gt;&lt;div&gt;&lt;br&gt;&lt;/div&gt;&lt;div&gt;&lt;br&gt;&lt;/div&gt;" style="rounded=0;whiteSpace=wrap;html=1;fillColor=#f8cecc;strokeColor=#b85450;" parent="1" vertex="1">
          <mxGeometry x="2580" y="2278.13" width="400" height="241.87" as="geometry" />
        </mxCell>
        <mxCell id="w3264zR7rGeF_oMtsxfC-340" style="edgeStyle=orthogonalEdgeStyle;rounded=0;orthogonalLoop=1;jettySize=auto;html=1;exitX=0.5;exitY=1;exitDx=0;exitDy=0;" parent="1" source="w3264zR7rGeF_oMtsxfC-176" target="w3264zR7rGeF_oMtsxfC-176" edge="1">
          <mxGeometry relative="1" as="geometry" />
        </mxCell>
        <mxCell id="w3264zR7rGeF_oMtsxfC-348" style="edgeStyle=orthogonalEdgeStyle;rounded=0;orthogonalLoop=1;jettySize=auto;html=1;exitX=0.25;exitY=1;exitDx=0;exitDy=0;entryX=0.668;entryY=-0.002;entryDx=0;entryDy=0;entryPerimeter=0;" parent="1" source="w3264zR7rGeF_oMtsxfC-164" target="w3264zR7rGeF_oMtsxfC-166" edge="1">
          <mxGeometry relative="1" as="geometry" />
        </mxCell>
        <mxCell id="3ocRaK4UEdnMgbk3KAv0-1" style="edgeStyle=orthogonalEdgeStyle;rounded=0;orthogonalLoop=1;jettySize=auto;html=1;exitX=0.25;exitY=1;exitDx=0;exitDy=0;entryX=0.977;entryY=0.417;entryDx=0;entryDy=0;entryPerimeter=0;" edge="1" parent="1" source="w3264zR7rGeF_oMtsxfC-18" target="w3264zR7rGeF_oMtsxfC-38">
          <mxGeometry relative="1" as="geometry" />
        </mxCell>
        <mxCell id="3ocRaK4UEdnMgbk3KAv0-3" style="edgeStyle=orthogonalEdgeStyle;rounded=0;orthogonalLoop=1;jettySize=auto;html=1;exitX=1;exitY=0.5;exitDx=0;exitDy=0;entryX=0.47;entryY=-0.004;entryDx=0;entryDy=0;entryPerimeter=0;" edge="1" parent="1" source="w3264zR7rGeF_oMtsxfC-59" target="w3264zR7rGeF_oMtsxfC-64">
          <mxGeometry relative="1" as="geometry" />
        </mxCell>
      </root>
    </mxGraphModel>
  </diagram>
</mxfile>
